<svg width="541" height="371" viewBox="0 0 541 371" fill="none" xmlns="http://www.w3.org/2000/svg">
<g clip-path="url(#clip0_73_514)">
<g filter="url(#filter0_bd_73_514)">
<rect x="48" y="28" width="459" height="314" rx="16" ry="16" fill="#2A314B"/>
<g clip-path="url(#clip1_73_514)">
<path d="M59.584 76H66.82V74.632H64.156V62.806H62.896C62.194 63.238 61.348 63.544 60.16 63.742V64.804H62.518V74.632H59.584V76ZM58.792 102H67.072V100.596H63.418C62.752 100.596 61.96 100.65 61.258 100.722C64.372 97.788 66.442 95.106 66.442 92.46C66.442 90.102 64.966 88.572 62.608 88.572C60.934 88.572 59.782 89.346 58.702 90.516L59.656 91.434C60.394 90.57 61.33 89.904 62.41 89.904C64.048 89.904 64.822 91.02 64.822 92.532C64.822 94.782 62.932 97.428 58.792 101.046V102ZM62.734 128.252C65.092 128.252 66.982 126.83 66.982 124.49C66.982 122.672 65.722 121.502 64.174 121.124V121.052C65.578 120.548 66.514 119.486 66.514 117.884C66.514 115.778 64.894 114.572 62.68 114.572C61.168 114.572 59.998 115.238 59.008 116.138L59.89 117.2C60.628 116.444 61.564 115.904 62.626 115.904C63.994 115.904 64.84 116.732 64.84 117.992C64.84 119.432 63.922 120.512 61.204 120.512V121.79C64.246 121.79 65.308 122.834 65.308 124.418C65.308 125.93 64.192 126.884 62.626 126.884C61.114 126.884 60.124 126.164 59.35 125.354L58.522 126.434C59.386 127.388 60.664 128.252 62.734 128.252ZM64.102 154H65.65V140.806H63.832L58.342 149.284V150.364H67.414V149.068H60.07L63.076 144.568C63.436 143.92 63.796 143.254 64.12 142.606H64.21C64.156 143.29 64.102 144.352 64.102 145.018V154ZM62.698 180.252C64.912 180.252 67.018 178.596 67.018 175.716C67.018 172.8 65.236 171.504 63.04 171.504C62.248 171.504 61.654 171.702 61.06 172.026L61.402 168.21H66.388V166.806H59.962L59.548 172.98L60.43 173.538C61.186 173.034 61.744 172.746 62.626 172.746C64.264 172.746 65.344 173.88 65.344 175.77C65.344 177.678 64.102 178.884 62.536 178.884C61.024 178.884 60.052 178.182 59.314 177.408L58.486 178.488C59.386 179.388 60.646 180.252 62.698 180.252ZM63.418 206.252C65.452 206.252 67.198 204.524 67.198 201.968C67.198 199.196 65.758 197.828 63.526 197.828C62.464 197.828 61.24 198.476 60.43 199.538L60.484 200.852C61.366 199.538 62.428 199.034 63.274 199.034C64.858 199.034 65.65 200.168 65.65 201.968C65.65 203.75 64.678 204.956 63.418 204.956C61.564 204.956 60.538 203.102 60.538 199.718C60.538 195.398 62.086 193.94 63.94 193.94C64.732 193.94 65.542 194.318 66.046 194.93L66.964 193.922C66.244 193.148 65.236 192.572 63.868 192.572C61.312 192.572 58.99 194.552 58.99 199.718C58.99 204.074 60.88 206.252 63.418 206.252ZM61.546 232H63.256C63.472 226.852 64.03 223.774 67.126 219.796V218.806H58.882V220.21H65.272C62.68 223.81 61.78 227.014 61.546 232ZM63.022 258.252C65.488 258.252 67.162 256.758 67.162 254.832C67.162 253.032 66.082 252.024 64.93 251.358V251.268C65.722 250.656 66.694 249.486 66.694 248.082C66.694 246.066 65.326 244.626 63.076 244.626C61.006 244.626 59.44 245.958 59.44 247.956C59.44 249.342 60.268 250.35 61.24 251.016V251.088C60.034 251.736 58.81 252.96 58.81 254.742C58.81 256.776 60.592 258.252 63.022 258.252ZM63.922 250.854C62.374 250.242 60.952 249.54 60.952 247.956C60.952 246.696 61.834 245.832 63.04 245.832C64.462 245.832 65.29 246.876 65.29 248.172C65.29 249.162 64.822 250.062 63.922 250.854ZM63.058 257.01C61.474 257.01 60.286 255.984 60.286 254.58C60.286 253.32 61.024 252.276 62.104 251.592C63.958 252.348 65.578 253.014 65.578 254.778C65.578 256.092 64.57 257.01 63.058 257.01Z" fill="#C4C4C4"/>
</g>
<path d="M81.818 76H82.88L83.384 71.896H86.03L85.562 76H86.624L87.11 71.896H88.982V70.744H87.254L87.632 67.774H89.378V66.622H87.758L88.226 62.932H87.164L86.678 66.622H84.014L84.482 62.932H83.42L82.952 66.622H81.116V67.774H82.826L82.448 70.744H80.702V71.896H82.304L81.818 76ZM83.51 70.744L83.87 67.774H86.552L86.192 70.744H83.51ZM100.274 76.252C102.056 76.252 103.496 75.604 104.36 74.722V69.178H100.022V70.564H102.812V74.02C102.308 74.488 101.39 74.776 100.436 74.776C97.6098 74.776 96.0438 72.706 96.0438 69.376C96.0438 66.082 97.7538 64.03 100.418 64.03C101.75 64.03 102.596 64.588 103.262 65.272L104.18 64.192C103.406 63.4 102.2 62.572 100.382 62.572C96.8898 62.572 94.3338 65.164 94.3338 69.412C94.3338 73.696 96.8178 76.252 100.274 76.252ZM110.938 76.252C112.27 76.252 113.296 75.802 114.16 75.244L113.566 74.146C112.846 74.632 112.072 74.938 111.136 74.938C109.264 74.938 108.004 73.588 107.878 71.518H114.466C114.52 71.266 114.538 70.924 114.538 70.582C114.538 67.774 113.134 65.992 110.65 65.992C108.4 65.992 106.258 67.954 106.258 71.14C106.258 74.344 108.328 76.252 110.938 76.252ZM107.86 70.33C108.076 68.404 109.3 67.306 110.668 67.306C112.216 67.306 113.098 68.368 113.098 70.33H107.86ZM116.603 76H118.241V68.908C119.213 67.936 119.915 67.414 120.905 67.414C122.201 67.414 122.759 68.188 122.759 70.024V76H124.415V69.808C124.415 67.324 123.479 65.992 121.427 65.992C120.077 65.992 119.069 66.73 118.151 67.648H118.097L117.935 66.226H116.603V76ZM131.171 76.252C132.503 76.252 133.529 75.802 134.393 75.244L133.799 74.146C133.079 74.632 132.305 74.938 131.369 74.938C129.497 74.938 128.237 73.588 128.111 71.518H134.699C134.753 71.266 134.771 70.924 134.771 70.582C134.771 67.774 133.367 65.992 130.883 65.992C128.633 65.992 126.491 67.954 126.491 71.14C126.491 74.344 128.561 76.252 131.171 76.252ZM128.093 70.33C128.309 68.404 129.533 67.306 130.901 67.306C132.449 67.306 133.331 68.368 133.331 70.33H128.093ZM136.836 76H138.474V69.736C139.122 68.062 140.13 67.468 140.94 67.468C141.336 67.468 141.552 67.522 141.894 67.63L142.2 66.19C141.876 66.046 141.588 65.992 141.156 65.992C140.058 65.992 139.05 66.766 138.384 68.008H138.33L138.168 66.226H136.836V76ZM145.177 76.252C146.383 76.252 147.481 75.622 148.399 74.848H148.471L148.615 76H149.965V70.006C149.965 67.576 148.957 65.992 146.563 65.992C144.997 65.992 143.629 66.676 142.729 67.252L143.377 68.404C144.133 67.882 145.159 67.342 146.311 67.342C147.913 67.342 148.309 68.548 148.309 69.808C144.151 70.276 142.315 71.338 142.315 73.462C142.315 75.226 143.539 76.252 145.177 76.252ZM145.627 74.92C144.673 74.92 143.917 74.47 143.917 73.354C143.917 72.094 145.015 71.284 148.309 70.906V73.624C147.373 74.47 146.581 74.92 145.627 74.92ZM155.453 76.252C156.065 76.252 156.713 76.072 157.253 75.874L156.929 74.65C156.623 74.776 156.173 74.92 155.831 74.92C154.697 74.92 154.319 74.218 154.319 73.03V67.558H156.965V66.226H154.319V63.472H152.933L152.753 66.226L151.223 66.334V67.558H152.681V72.994C152.681 74.938 153.365 76.252 155.453 76.252ZM162.444 76.252C163.776 76.252 164.802 75.802 165.666 75.244L165.072 74.146C164.352 74.632 163.578 74.938 162.642 74.938C160.77 74.938 159.51 73.588 159.384 71.518H165.972C166.026 71.266 166.044 70.924 166.044 70.582C166.044 67.774 164.64 65.992 162.156 65.992C159.906 65.992 157.764 67.954 157.764 71.14C157.764 74.344 159.834 76.252 162.444 76.252ZM159.366 70.33C159.582 68.404 160.806 67.306 162.174 67.306C163.722 67.306 164.604 68.368 164.604 70.33H159.366ZM171.774 76H173.412V69.736C174.06 68.062 175.068 67.468 175.878 67.468C176.274 67.468 176.49 67.522 176.832 67.63L177.138 66.19C176.814 66.046 176.526 65.992 176.094 65.992C174.996 65.992 173.988 66.766 173.322 68.008H173.268L173.106 66.226H171.774V76ZM180.115 76.252C181.321 76.252 182.419 75.622 183.337 74.848H183.409L183.553 76H184.903V70.006C184.903 67.576 183.895 65.992 181.501 65.992C179.935 65.992 178.567 66.676 177.667 67.252L178.315 68.404C179.071 67.882 180.097 67.342 181.249 67.342C182.851 67.342 183.247 68.548 183.247 69.808C179.089 70.276 177.253 71.338 177.253 73.462C177.253 75.226 178.477 76.252 180.115 76.252ZM180.565 74.92C179.611 74.92 178.855 74.47 178.855 73.354C178.855 72.094 179.953 71.284 183.247 70.906V73.624C182.311 74.47 181.519 74.92 180.565 74.92ZM187.648 76H189.286V68.908C190.258 67.936 190.96 67.414 191.95 67.414C193.246 67.414 193.804 68.188 193.804 70.024V76H195.46V69.808C195.46 67.324 194.524 65.992 192.472 65.992C191.122 65.992 190.114 66.73 189.196 67.648H189.142L188.98 66.226H187.648V76ZM201.586 76.252C202.774 76.252 203.8 75.622 204.574 74.848H204.61L204.754 76H206.104V61.69H204.466V65.434L204.538 67.126C203.692 66.406 202.936 65.992 201.802 65.992C199.57 65.992 197.554 67.954 197.554 71.14C197.554 74.398 199.138 76.252 201.586 76.252ZM201.946 74.866C200.236 74.866 199.264 73.462 199.264 71.122C199.264 68.89 200.506 67.36 202.072 67.36C202.882 67.36 203.638 67.648 204.466 68.404V73.534C203.656 74.416 202.864 74.866 201.946 74.866ZM212.874 76.252C215.268 76.252 217.392 74.362 217.392 71.14C217.392 67.864 215.268 65.992 212.874 65.992C210.462 65.992 208.338 67.864 208.338 71.14C208.338 74.362 210.462 76.252 212.874 76.252ZM212.874 74.884C211.164 74.884 210.03 73.372 210.03 71.14C210.03 68.872 211.164 67.36 212.874 67.36C214.566 67.36 215.7 68.872 215.7 71.14C215.7 73.372 214.566 74.884 212.874 74.884ZM219.632 76H221.27V68.908C222.152 67.918 222.98 67.414 223.718 67.414C224.978 67.414 225.554 68.188 225.554 70.024V76H227.192V68.908C228.11 67.918 228.884 67.414 229.64 67.414C230.9 67.414 231.476 68.188 231.476 70.024V76H233.114V69.808C233.114 67.324 232.142 65.992 230.144 65.992C228.956 65.992 227.93 66.766 226.904 67.846C226.526 66.694 225.716 65.992 224.222 65.992C223.052 65.992 222.026 66.73 221.18 67.648H221.126L220.964 66.226H219.632V76ZM242.662 76.252C243.274 76.252 243.922 76.072 244.462 75.874L244.138 74.65C243.832 74.776 243.382 74.92 243.04 74.92C241.906 74.92 241.528 74.218 241.528 73.03V67.558H244.174V66.226H241.528V63.472H240.142L239.962 66.226L238.432 66.334V67.558H239.89V72.994C239.89 74.938 240.574 76.252 242.662 76.252ZM249.653 76.252C250.985 76.252 252.011 75.802 252.875 75.244L252.281 74.146C251.561 74.632 250.787 74.938 249.851 74.938C247.979 74.938 246.719 73.588 246.593 71.518H253.181C253.235 71.266 253.253 70.924 253.253 70.582C253.253 67.774 251.849 65.992 249.365 65.992C247.115 65.992 244.973 67.954 244.973 71.14C244.973 74.344 247.043 76.252 249.653 76.252ZM246.575 70.33C246.791 68.404 248.015 67.306 249.383 67.306C250.931 67.306 251.813 68.368 251.813 70.33H246.575ZM253.738 76H255.466L256.78 73.714C257.104 73.12 257.428 72.526 257.77 71.968H257.86C258.22 72.526 258.58 73.138 258.922 73.714L260.362 76H262.144L258.94 71.068L261.892 66.226H260.182L258.994 68.368C258.688 68.926 258.4 69.466 258.112 70.024H258.04C257.698 69.466 257.374 68.926 257.068 68.368L255.754 66.226H253.99L256.942 70.906L253.738 76ZM266.261 76.252C266.873 76.252 267.521 76.072 268.061 75.874L267.737 74.65C267.431 74.776 266.981 74.92 266.639 74.92C265.505 74.92 265.127 74.218 265.127 73.03V67.558H267.773V66.226H265.127V63.472H263.741L263.561 66.226L262.031 66.334V67.558H263.489V72.994C263.489 74.938 264.173 76.252 266.261 76.252ZM273.544 76H275.182V64.696C275.182 63.418 275.632 62.77 276.568 62.77C276.928 62.77 277.306 62.86 277.684 63.022L278.026 61.762C277.576 61.582 277 61.438 276.406 61.438C274.462 61.438 273.544 62.698 273.544 64.66V76ZM272.212 67.558H277.27V66.226H273.634L272.212 66.334V67.558ZM282.337 76.252C284.731 76.252 286.855 74.362 286.855 71.14C286.855 67.864 284.731 65.992 282.337 65.992C279.925 65.992 277.801 67.864 277.801 71.14C277.801 74.362 279.925 76.252 282.337 76.252ZM282.337 74.884C280.627 74.884 279.493 73.372 279.493 71.14C279.493 68.872 280.627 67.36 282.337 67.36C284.029 67.36 285.163 68.872 285.163 71.14C285.163 73.372 284.029 74.884 282.337 74.884ZM289.095 76H290.733V69.736C291.381 68.062 292.389 67.468 293.199 67.468C293.595 67.468 293.811 67.522 294.153 67.63L294.459 66.19C294.135 66.046 293.847 65.992 293.415 65.992C292.317 65.992 291.309 66.766 290.643 68.008H290.589L290.427 66.226H289.095V76ZM301.629 76.252C302.835 76.252 303.933 75.622 304.851 74.848H304.923L305.067 76H306.417V70.006C306.417 67.576 305.409 65.992 303.015 65.992C301.449 65.992 300.081 66.676 299.181 67.252L299.829 68.404C300.585 67.882 301.611 67.342 302.763 67.342C304.365 67.342 304.761 68.548 304.761 69.808C300.603 70.276 298.767 71.338 298.767 73.462C298.767 75.226 299.991 76.252 301.629 76.252ZM302.079 74.92C301.125 74.92 300.369 74.47 300.369 73.354C300.369 72.094 301.467 71.284 304.761 70.906V73.624C303.825 74.47 303.033 74.92 302.079 74.92ZM315.671 76.252C317.021 76.252 317.993 75.532 318.911 74.47H318.947L319.091 76H320.441V66.226H318.803V73.174C317.885 74.326 317.165 74.812 316.175 74.812C314.879 74.812 314.321 74.038 314.321 72.22V66.226H312.683V72.418C312.683 74.92 313.619 76.252 315.671 76.252ZM323.401 76H325.039V68.908C326.011 67.936 326.713 67.414 327.703 67.414C328.999 67.414 329.557 68.188 329.557 70.024V76H331.213V69.808C331.213 67.324 330.277 65.992 328.225 65.992C326.875 65.992 325.867 66.73 324.949 67.648H324.895L324.733 66.226H323.401V76ZM334.027 76H335.665V66.226H334.027V76ZM334.855 64.21C335.485 64.21 335.953 63.796 335.953 63.112C335.953 62.482 335.485 62.068 334.855 62.068C334.207 62.068 333.757 62.482 333.757 63.112C333.757 63.796 334.207 64.21 334.855 64.21ZM344.816 80.122H346.454V66.226H345.158L344.996 67.162H344.942C344.078 66.406 343.286 65.992 342.152 65.992C339.92 65.992 337.904 67.954 337.904 71.14C337.904 74.398 339.488 76.252 341.936 76.252C343.088 76.252 344.096 75.64 344.888 74.884L344.816 76.666V80.122ZM342.296 74.866C340.586 74.866 339.614 73.462 339.614 71.122C339.614 68.89 340.856 67.36 342.422 67.36C343.232 67.36 343.988 67.648 344.816 68.404V73.534C344.006 74.416 343.214 74.866 342.296 74.866ZM352.27 76.252C353.62 76.252 354.592 75.532 355.51 74.47H355.546L355.69 76H357.04V66.226H355.402V73.174C354.484 74.326 353.764 74.812 352.774 74.812C351.478 74.812 350.92 74.038 350.92 72.22V66.226H349.282V72.418C349.282 74.92 350.218 76.252 352.27 76.252ZM363.942 76.252C365.274 76.252 366.3 75.802 367.164 75.244L366.57 74.146C365.85 74.632 365.076 74.938 364.14 74.938C362.268 74.938 361.008 73.588 360.882 71.518H367.47C367.524 71.266 367.542 70.924 367.542 70.582C367.542 67.774 366.138 65.992 363.654 65.992C361.404 65.992 359.262 67.954 359.262 71.14C359.262 74.344 361.332 76.252 363.942 76.252ZM360.864 70.33C361.08 68.404 362.304 67.306 363.672 67.306C365.22 67.306 366.102 68.368 366.102 70.33H360.864ZM375.828 76.252C378.132 76.252 379.374 74.938 379.374 73.336C379.374 71.482 377.826 70.906 376.404 70.366C375.288 69.97 374.298 69.61 374.298 68.674C374.298 67.918 374.856 67.27 376.098 67.27C376.962 67.27 377.664 67.648 378.33 68.134L379.122 67.09C378.366 66.478 377.286 65.992 376.08 65.992C373.956 65.992 372.714 67.198 372.714 68.746C372.714 70.42 374.208 71.068 375.558 71.59C376.638 71.986 377.808 72.436 377.808 73.426C377.808 74.29 377.16 74.974 375.864 74.974C374.694 74.974 373.83 74.488 372.984 73.804L372.174 74.902C373.092 75.658 374.442 76.252 375.828 76.252ZM383.935 76.252C384.547 76.252 385.195 76.072 385.735 75.874L385.411 74.65C385.105 74.776 384.655 74.92 384.313 74.92C383.179 74.92 382.801 74.218 382.801 73.03V67.558H385.447V66.226H382.801V63.472H381.415L381.235 66.226L379.705 66.334V67.558H381.163V72.994C381.163 74.938 381.847 76.252 383.935 76.252ZM390.782 76.252C393.176 76.252 395.3 74.362 395.3 71.14C395.3 67.864 393.176 65.992 390.782 65.992C388.37 65.992 386.246 67.864 386.246 71.14C386.246 74.362 388.37 76.252 390.782 76.252ZM390.782 74.884C389.072 74.884 387.938 73.372 387.938 71.14C387.938 68.872 389.072 67.36 390.782 67.36C392.474 67.36 393.608 68.872 393.608 71.14C393.608 73.372 392.474 74.884 390.782 74.884ZM397.54 76H399.178V69.736C399.826 68.062 400.834 67.468 401.644 67.468C402.04 67.468 402.256 67.522 402.598 67.63L402.904 66.19C402.58 66.046 402.292 65.992 401.86 65.992C400.762 65.992 399.754 66.766 399.088 68.008H399.034L398.872 66.226H397.54V76ZM405.881 76.252C407.087 76.252 408.185 75.622 409.103 74.848H409.175L409.319 76H410.669V70.006C410.669 67.576 409.661 65.992 407.267 65.992C405.701 65.992 404.333 66.676 403.433 67.252L404.081 68.404C404.837 67.882 405.863 67.342 407.015 67.342C408.617 67.342 409.013 68.548 409.013 69.808C404.855 70.276 403.019 71.338 403.019 73.462C403.019 75.226 404.243 76.252 405.881 76.252ZM406.331 74.92C405.377 74.92 404.621 74.47 404.621 73.354C404.621 72.094 405.719 71.284 409.013 70.906V73.624C408.077 74.47 407.285 74.92 406.331 74.92ZM416.708 80.5C419.714 80.5 421.64 78.952 421.64 77.134C421.64 75.514 420.506 74.812 418.238 74.812H416.33C415.016 74.812 414.602 74.362 414.602 73.732C414.602 73.21 414.89 72.868 415.232 72.58C415.682 72.796 416.222 72.904 416.69 72.904C418.688 72.904 420.272 71.608 420.272 69.52C420.272 68.674 419.948 67.954 419.48 67.504H421.478V66.226H418.076C417.734 66.1 417.248 65.992 416.69 65.992C414.71 65.992 413.018 67.324 413.018 69.484C413.018 70.654 413.666 71.59 414.314 72.112V72.184C413.792 72.544 413.216 73.174 413.216 73.984C413.216 74.758 413.594 75.28 414.098 75.604V75.676C413.198 76.252 412.658 77.062 412.658 77.89C412.658 79.564 414.314 80.5 416.708 80.5ZM416.69 71.806C415.556 71.806 414.602 70.888 414.602 69.484C414.602 68.026 415.538 67.18 416.69 67.18C417.842 67.18 418.778 68.044 418.778 69.484C418.778 70.888 417.824 71.806 416.69 71.806ZM416.924 79.384C415.16 79.384 414.098 78.718 414.098 77.656C414.098 77.098 414.386 76.504 415.088 76C415.538 76.126 415.988 76.162 416.366 76.162H418.058C419.336 76.162 420.038 76.468 420.038 77.386C420.038 78.394 418.814 79.384 416.924 79.384ZM426.839 76.252C428.171 76.252 429.197 75.802 430.061 75.244L429.467 74.146C428.747 74.632 427.973 74.938 427.037 74.938C425.165 74.938 423.905 73.588 423.779 71.518H430.367C430.421 71.266 430.439 70.924 430.439 70.582C430.439 67.774 429.035 65.992 426.551 65.992C424.301 65.992 422.159 67.954 422.159 71.14C422.159 74.344 424.229 76.252 426.839 76.252ZM423.761 70.33C423.977 68.404 425.201 67.306 426.569 67.306C428.117 67.306 428.999 68.368 428.999 70.33H423.761ZM438.42 76.252C439.626 76.252 440.724 75.622 441.642 74.848H441.714L441.858 76H443.208V70.006C443.208 67.576 442.2 65.992 439.806 65.992C438.24 65.992 436.872 66.676 435.972 67.252L436.62 68.404C437.376 67.882 438.402 67.342 439.554 67.342C441.156 67.342 441.552 68.548 441.552 69.808C437.394 70.276 435.558 71.338 435.558 73.462C435.558 75.226 436.782 76.252 438.42 76.252ZM438.87 74.92C437.916 74.92 437.16 74.47 437.16 73.354C437.16 72.094 438.258 71.284 441.552 70.906V73.624C440.616 74.47 439.824 74.92 438.87 74.92ZM449.786 76.252C450.956 76.252 452.09 75.784 452.954 75.01L452.252 73.912C451.64 74.452 450.83 74.884 449.948 74.884C448.148 74.884 446.906 73.372 446.906 71.14C446.906 68.872 448.202 67.36 450.002 67.36C450.758 67.36 451.37 67.702 451.946 68.224L452.774 67.144C452.09 66.514 451.19 65.992 449.912 65.992C447.41 65.992 445.214 67.864 445.214 71.14C445.214 74.362 447.194 76.252 449.786 76.252ZM458.127 76.252C459.297 76.252 460.431 75.784 461.295 75.01L460.593 73.912C459.981 74.452 459.171 74.884 458.289 74.884C456.489 74.884 455.247 73.372 455.247 71.14C455.247 68.872 456.543 67.36 458.343 67.36C459.099 67.36 459.711 67.702 460.287 68.224L461.115 67.144C460.431 66.514 459.531 65.992 458.253 65.992C455.751 65.992 453.555 67.864 453.555 71.14C453.555 74.362 455.535 76.252 458.127 76.252ZM466.432 76.252C468.826 76.252 470.95 74.362 470.95 71.14C470.95 67.864 468.826 65.992 466.432 65.992C464.02 65.992 461.896 67.864 461.896 71.14C461.896 74.362 464.02 76.252 466.432 76.252ZM466.432 74.884C464.722 74.884 463.588 73.372 463.588 71.14C463.588 68.872 464.722 67.36 466.432 67.36C468.124 67.36 469.258 68.872 469.258 71.14C469.258 73.372 468.124 74.884 466.432 74.884ZM476.034 76.252C477.384 76.252 478.356 75.532 479.274 74.47H479.31L479.454 76H480.804V66.226H479.166V73.174C478.248 74.326 477.528 74.812 476.538 74.812C475.242 74.812 474.684 74.038 474.684 72.22V66.226H473.046V72.418C473.046 74.92 473.982 76.252 476.034 76.252ZM483.764 76H485.402V68.908C486.374 67.936 487.076 67.414 488.066 67.414C489.362 67.414 489.92 68.188 489.92 70.024V76H491.576V69.808C491.576 67.324 490.64 65.992 488.588 65.992C487.238 65.992 486.23 66.73 485.312 67.648H485.258L485.096 66.226H483.764V76ZM497.45 76.252C498.062 76.252 498.71 76.072 499.25 75.874L498.926 74.65C498.62 74.776 498.17 74.92 497.828 74.92C496.694 74.92 496.316 74.218 496.316 73.03V67.558H498.962V66.226H496.316V63.472H494.93L494.75 66.226L493.22 66.334V67.558H494.678V72.994C494.678 74.938 495.362 76.252 497.45 76.252ZM81.656 102H83.294V95.736C83.942 94.062 84.95 93.468 85.76 93.468C86.156 93.468 86.372 93.522 86.714 93.63L87.02 92.19C86.696 92.046 86.408 91.992 85.976 91.992C84.878 91.992 83.87 92.766 83.204 94.008H83.15L82.988 92.226H81.656V102ZM91.9704 102.252C93.3024 102.252 94.3284 101.802 95.1924 101.244L94.5984 100.146C93.8784 100.632 93.1044 100.938 92.1684 100.938C90.2964 100.938 89.0364 99.588 88.9104 97.518H95.4984C95.5524 97.266 95.5704 96.924 95.5704 96.582C95.5704 93.774 94.1664 91.992 91.6824 91.992C89.4324 91.992 87.2904 93.954 87.2904 97.14C87.2904 100.344 89.3604 102.252 91.9704 102.252ZM88.8924 96.33C89.1084 94.404 90.3324 93.306 91.7004 93.306C93.2484 93.306 94.1304 94.368 94.1304 96.33H88.8924ZM100.191 102.252C102.495 102.252 103.737 100.938 103.737 99.336C103.737 97.482 102.189 96.906 100.767 96.366C99.6512 95.97 98.6612 95.61 98.6612 94.674C98.6612 93.918 99.2192 93.27 100.461 93.27C101.325 93.27 102.027 93.648 102.693 94.134L103.485 93.09C102.729 92.478 101.649 91.992 100.443 91.992C98.3192 91.992 97.0772 93.198 97.0772 94.746C97.0772 96.42 98.5712 97.068 99.9212 97.59C101.001 97.986 102.171 98.436 102.171 99.426C102.171 100.29 101.523 100.974 100.227 100.974C99.0572 100.974 98.1932 100.488 97.3472 99.804L96.5372 100.902C97.4552 101.658 98.8052 102.252 100.191 102.252ZM109.493 102.252C111.887 102.252 114.011 100.362 114.011 97.14C114.011 93.864 111.887 91.992 109.493 91.992C107.081 91.992 104.957 93.864 104.957 97.14C104.957 100.362 107.081 102.252 109.493 102.252ZM109.493 100.884C107.783 100.884 106.649 99.372 106.649 97.14C106.649 94.872 107.783 93.36 109.493 93.36C111.185 93.36 112.319 94.872 112.319 97.14C112.319 99.372 111.185 100.884 109.493 100.884ZM119.095 102.252C120.445 102.252 121.417 101.532 122.335 100.47H122.371L122.515 102H123.865V92.226H122.227V99.174C121.309 100.326 120.589 100.812 119.599 100.812C118.303 100.812 117.745 100.038 117.745 98.22V92.226H116.107V98.418C116.107 100.92 117.043 102.252 119.095 102.252ZM126.825 102H128.463V95.736C129.111 94.062 130.119 93.468 130.929 93.468C131.325 93.468 131.541 93.522 131.883 93.63L132.189 92.19C131.865 92.046 131.577 91.992 131.145 91.992C130.047 91.992 129.039 92.766 128.373 94.008H128.319L128.157 92.226H126.825V102ZM137.031 102.252C138.201 102.252 139.335 101.784 140.199 101.01L139.497 99.912C138.885 100.452 138.075 100.884 137.193 100.884C135.393 100.884 134.151 99.372 134.151 97.14C134.151 94.872 135.447 93.36 137.247 93.36C138.003 93.36 138.615 93.702 139.191 94.224L140.019 93.144C139.335 92.514 138.435 91.992 137.157 91.992C134.655 91.992 132.459 93.864 132.459 97.14C132.459 100.362 134.439 102.252 137.031 102.252ZM145.48 102.252C146.812 102.252 147.838 101.802 148.702 101.244L148.108 100.146C147.388 100.632 146.614 100.938 145.678 100.938C143.806 100.938 142.546 99.588 142.42 97.518H149.008C149.062 97.266 149.08 96.924 149.08 96.582C149.08 93.774 147.676 91.992 145.192 91.992C142.942 91.992 140.8 93.954 140.8 97.14C140.8 100.344 142.87 102.252 145.48 102.252ZM142.402 96.33C142.618 94.404 143.842 93.306 145.21 93.306C146.758 93.306 147.64 94.368 147.64 96.33H142.402ZM81.962 119.324H82.988L83.294 115.976L83.348 114.122H81.602L81.656 115.976L81.962 119.324ZM85.508 119.324H86.516L86.858 115.976L86.894 114.122H85.148L85.184 115.976L85.508 119.324ZM92.0714 128.252C93.2774 128.252 94.3754 127.622 95.2934 126.848H95.3654L95.5094 128H96.8594V122.006C96.8594 119.576 95.8514 117.992 93.4574 117.992C91.8914 117.992 90.5234 118.676 89.6234 119.252L90.2714 120.404C91.0274 119.882 92.0534 119.342 93.2054 119.342C94.8074 119.342 95.2034 120.548 95.2034 121.808C91.0454 122.276 89.2094 123.338 89.2094 125.462C89.2094 127.226 90.4334 128.252 92.0714 128.252ZM92.5214 126.92C91.5674 126.92 90.8114 126.47 90.8114 125.354C90.8114 124.094 91.9094 123.284 95.2034 122.906V125.624C94.2674 126.47 93.4754 126.92 92.5214 126.92ZM98.56 128H105.976V126.668H100.648L105.796 119.108V118.226H99.136V119.558H103.726L98.56 127.136V128ZM110.385 128.252C111.735 128.252 112.707 127.532 113.625 126.47H113.661L113.805 128H115.155V118.226H113.517V125.174C112.599 126.326 111.879 126.812 110.889 126.812C109.593 126.812 109.035 126.038 109.035 124.22V118.226H107.397V124.418C107.397 126.92 108.333 128.252 110.385 128.252ZM118.114 128H119.752V121.736C120.4 120.062 121.408 119.468 122.218 119.468C122.614 119.468 122.83 119.522 123.172 119.63L123.478 118.19C123.154 118.046 122.866 117.992 122.434 117.992C121.336 117.992 120.328 118.766 119.662 120.008H119.608L119.446 118.226H118.114V128ZM128.429 128.252C129.761 128.252 130.787 127.802 131.651 127.244L131.057 126.146C130.337 126.632 129.563 126.938 128.627 126.938C126.755 126.938 125.495 125.588 125.369 123.518H131.957C132.011 123.266 132.029 122.924 132.029 122.582C132.029 119.774 130.625 117.992 128.141 117.992C125.891 117.992 123.749 119.954 123.749 123.14C123.749 126.344 125.819 128.252 128.429 128.252ZM125.351 122.33C125.567 120.404 126.791 119.306 128.159 119.306C129.707 119.306 130.589 120.368 130.589 122.33H125.351ZM134.094 128H135.732V121.736C136.38 120.062 137.388 119.468 138.198 119.468C138.594 119.468 138.81 119.522 139.152 119.63L139.458 118.19C139.134 118.046 138.846 117.992 138.414 117.992C137.316 117.992 136.308 118.766 135.642 120.008H135.588L135.426 118.226H134.094V128ZM140.712 128H142.35V120.908C143.232 119.918 144.06 119.414 144.798 119.414C146.058 119.414 146.634 120.188 146.634 122.024V128H148.272V120.908C149.19 119.918 149.964 119.414 150.72 119.414C151.98 119.414 152.556 120.188 152.556 122.024V128H154.194V121.808C154.194 119.324 153.222 117.992 151.224 117.992C150.036 117.992 149.01 118.766 147.984 119.846C147.606 118.694 146.796 117.992 145.302 117.992C144.132 117.992 143.106 118.73 142.26 119.648H142.206L142.044 118.226H140.712V128ZM155.594 130.538H165.17V129.44H155.594V130.538ZM166.711 128H168.349V120.908C169.321 119.936 170.023 119.414 171.013 119.414C172.309 119.414 172.867 120.188 172.867 122.024V128H174.523V121.808C174.523 119.324 173.587 117.992 171.535 117.992C170.185 117.992 169.177 118.73 168.259 119.648H168.205L168.043 118.226H166.711V128ZM181.279 128.252C182.611 128.252 183.637 127.802 184.501 127.244L183.907 126.146C183.187 126.632 182.413 126.938 181.477 126.938C179.605 126.938 178.345 125.588 178.219 123.518H184.807C184.861 123.266 184.879 122.924 184.879 122.582C184.879 119.774 183.475 117.992 180.991 117.992C178.741 117.992 176.599 119.954 176.599 123.14C176.599 126.344 178.669 128.252 181.279 128.252ZM178.201 122.33C178.417 120.404 179.641 119.306 181.009 119.306C182.557 119.306 183.439 120.368 183.439 122.33H178.201ZM189.758 128.252C190.37 128.252 191.018 128.072 191.558 127.874L191.234 126.65C190.928 126.776 190.478 126.92 190.136 126.92C189.002 126.92 188.624 126.218 188.624 125.03V119.558H191.27V118.226H188.624V115.472H187.238L187.058 118.226L185.528 118.334V119.558H186.986V124.994C186.986 126.938 187.67 128.252 189.758 128.252ZM194.671 128H196.579L197.947 122.762C198.217 121.826 198.415 120.926 198.613 119.918H198.703C198.937 120.926 199.117 121.808 199.369 122.744L200.791 128H202.789L205.417 118.226H203.851L202.429 123.896C202.195 124.832 202.015 125.696 201.817 126.614H201.745C201.511 125.696 201.295 124.832 201.061 123.896L199.513 118.226H197.911L196.399 123.896C196.147 124.814 195.949 125.696 195.733 126.614H195.643C195.463 125.696 195.283 124.832 195.085 123.896L193.609 118.226H191.935L194.671 128ZM210.87 128.252C213.264 128.252 215.388 126.362 215.388 123.14C215.388 119.864 213.264 117.992 210.87 117.992C208.458 117.992 206.334 119.864 206.334 123.14C206.334 126.362 208.458 128.252 210.87 128.252ZM210.87 126.884C209.16 126.884 208.026 125.372 208.026 123.14C208.026 120.872 209.16 119.36 210.87 119.36C212.562 119.36 213.696 120.872 213.696 123.14C213.696 125.372 212.562 126.884 210.87 126.884ZM217.628 128H219.266V121.736C219.914 120.062 220.922 119.468 221.732 119.468C222.128 119.468 222.344 119.522 222.686 119.63L222.992 118.19C222.668 118.046 222.38 117.992 221.948 117.992C220.85 117.992 219.842 118.766 219.176 120.008H219.122L218.96 118.226H217.628V128ZM224.246 128H225.866V125.426L227.684 123.284L230.546 128H232.328L228.656 122.168L231.914 118.226H230.078L225.92 123.392H225.866V113.69H224.246V128ZM232.396 130.538H241.972V129.44H232.396V130.538ZM243.513 128H245.151V118.226H243.513V128ZM244.341 116.21C244.971 116.21 245.439 115.796 245.439 115.112C245.439 114.482 244.971 114.068 244.341 114.068C243.693 114.068 243.243 114.482 243.243 115.112C243.243 115.796 243.693 116.21 244.341 116.21ZM248.11 128H249.748V120.908C250.72 119.936 251.422 119.414 252.412 119.414C253.708 119.414 254.266 120.188 254.266 122.024V128H255.922V121.808C255.922 119.324 254.986 117.992 252.934 117.992C251.584 117.992 250.576 118.73 249.658 119.648H249.604L249.442 118.226H248.11V128ZM261.796 128.252C262.408 128.252 263.056 128.072 263.596 127.874L263.272 126.65C262.966 126.776 262.516 126.92 262.174 126.92C261.04 126.92 260.662 126.218 260.662 125.03V119.558H263.308V118.226H260.662V115.472H259.276L259.096 118.226L257.566 118.334V119.558H259.024V124.994C259.024 126.938 259.708 128.252 261.796 128.252ZM268.787 128.252C270.119 128.252 271.145 127.802 272.009 127.244L271.415 126.146C270.695 126.632 269.921 126.938 268.985 126.938C267.113 126.938 265.853 125.588 265.727 123.518H272.315C272.369 123.266 272.387 122.924 272.387 122.582C272.387 119.774 270.983 117.992 268.499 117.992C266.249 117.992 264.107 119.954 264.107 123.14C264.107 126.344 266.177 128.252 268.787 128.252ZM265.709 122.33C265.925 120.404 267.149 119.306 268.517 119.306C270.065 119.306 270.947 120.368 270.947 122.33H265.709ZM274.451 128H276.089V121.736C276.737 120.062 277.745 119.468 278.555 119.468C278.951 119.468 279.167 119.522 279.509 119.63L279.815 118.19C279.491 118.046 279.203 117.992 278.771 117.992C277.673 117.992 276.665 118.766 275.999 120.008H275.945L275.783 118.226H274.451V128ZM281.322 128H282.96V116.696C282.96 115.418 283.41 114.77 284.346 114.77C284.706 114.77 285.084 114.86 285.462 115.022L285.804 113.762C285.354 113.582 284.778 113.438 284.184 113.438C282.24 113.438 281.322 114.698 281.322 116.66V128ZM279.99 119.558H285.048V118.226H281.412L279.99 118.334V119.558ZM288.356 128.252C289.562 128.252 290.66 127.622 291.578 126.848H291.65L291.794 128H293.144V122.006C293.144 119.576 292.136 117.992 289.742 117.992C288.176 117.992 286.808 118.676 285.908 119.252L286.556 120.404C287.312 119.882 288.338 119.342 289.49 119.342C291.092 119.342 291.488 120.548 291.488 121.808C287.33 122.276 285.494 123.338 285.494 125.462C285.494 127.226 286.718 128.252 288.356 128.252ZM288.806 126.92C287.852 126.92 287.096 126.47 287.096 125.354C287.096 124.094 288.194 123.284 291.488 122.906V125.624C290.552 126.47 289.76 126.92 288.806 126.92ZM299.723 128.252C300.893 128.252 302.027 127.784 302.891 127.01L302.189 125.912C301.577 126.452 300.767 126.884 299.885 126.884C298.085 126.884 296.843 125.372 296.843 123.14C296.843 120.872 298.139 119.36 299.939 119.36C300.695 119.36 301.307 119.702 301.883 120.224L302.711 119.144C302.027 118.514 301.127 117.992 299.849 117.992C297.347 117.992 295.151 119.864 295.151 123.14C295.151 126.362 297.131 128.252 299.723 128.252ZM308.172 128.252C309.504 128.252 310.53 127.802 311.394 127.244L310.8 126.146C310.08 126.632 309.306 126.938 308.37 126.938C306.498 126.938 305.238 125.588 305.112 123.518H311.7C311.754 123.266 311.772 122.924 311.772 122.582C311.772 119.774 310.368 117.992 307.884 117.992C305.634 117.992 303.492 119.954 303.492 123.14C303.492 126.344 305.562 128.252 308.172 128.252ZM305.094 122.33C305.31 120.404 306.534 119.306 307.902 119.306C309.45 119.306 310.332 120.368 310.332 122.33H305.094ZM312.415 130.538H321.991V129.44H312.415V130.538ZM326.088 128.252C328.392 128.252 329.634 126.938 329.634 125.336C329.634 123.482 328.086 122.906 326.664 122.366C325.548 121.97 324.558 121.61 324.558 120.674C324.558 119.918 325.116 119.27 326.358 119.27C327.222 119.27 327.924 119.648 328.59 120.134L329.382 119.09C328.626 118.478 327.546 117.992 326.34 117.992C324.216 117.992 322.974 119.198 322.974 120.746C322.974 122.42 324.468 123.068 325.818 123.59C326.898 123.986 328.068 124.436 328.068 125.426C328.068 126.29 327.42 126.974 326.124 126.974C324.954 126.974 324.09 126.488 323.244 125.804L322.434 126.902C323.352 127.658 324.702 128.252 326.088 128.252ZM335.534 128.252C336.866 128.252 337.892 127.802 338.756 127.244L338.162 126.146C337.442 126.632 336.668 126.938 335.732 126.938C333.86 126.938 332.6 125.588 332.474 123.518H339.062C339.116 123.266 339.134 122.924 339.134 122.582C339.134 119.774 337.73 117.992 335.246 117.992C332.996 117.992 330.854 119.954 330.854 123.14C330.854 126.344 332.924 128.252 335.534 128.252ZM332.456 122.33C332.672 120.404 333.896 119.306 335.264 119.306C336.812 119.306 337.694 120.368 337.694 122.33H332.456ZM345.032 128.252C346.202 128.252 347.336 127.784 348.2 127.01L347.498 125.912C346.886 126.452 346.076 126.884 345.194 126.884C343.394 126.884 342.152 125.372 342.152 123.14C342.152 120.872 343.448 119.36 345.248 119.36C346.004 119.36 346.616 119.702 347.192 120.224L348.02 119.144C347.336 118.514 346.436 117.992 345.158 117.992C342.656 117.992 340.46 119.864 340.46 123.14C340.46 126.362 342.44 128.252 345.032 128.252ZM352.858 128.252C354.208 128.252 355.18 127.532 356.098 126.47H356.134L356.278 128H357.628V118.226H355.99V125.174C355.072 126.326 354.352 126.812 353.362 126.812C352.066 126.812 351.508 126.038 351.508 124.22V118.226H349.87V124.418C349.87 126.92 350.806 128.252 352.858 128.252ZM360.588 128H362.226V121.736C362.874 120.062 363.882 119.468 364.692 119.468C365.088 119.468 365.304 119.522 365.646 119.63L365.952 118.19C365.628 118.046 365.34 117.992 364.908 117.992C363.81 117.992 362.802 118.766 362.136 120.008H362.082L361.92 118.226H360.588V128ZM367.206 128H368.844V118.226H367.206V128ZM368.034 116.21C368.664 116.21 369.132 115.796 369.132 115.112C369.132 114.482 368.664 114.068 368.034 114.068C367.386 114.068 366.936 114.482 366.936 115.112C366.936 115.796 367.386 116.21 368.034 116.21ZM374.863 128.252C375.475 128.252 376.123 128.072 376.663 127.874L376.339 126.65C376.033 126.776 375.583 126.92 375.241 126.92C374.107 126.92 373.729 126.218 373.729 125.03V119.558H376.375V118.226H373.729V115.472H372.343L372.163 118.226L370.633 118.334V119.558H372.091V124.994C372.091 126.938 372.775 128.252 374.863 128.252ZM378.373 132.23C380.335 132.23 381.343 130.754 382.027 128.828L385.717 118.226H384.115L382.351 123.662C382.099 124.544 381.811 125.516 381.541 126.416H381.451C381.127 125.516 380.803 124.526 380.497 123.662L378.499 118.226H376.807L380.731 128.018L380.515 128.756C380.101 129.962 379.399 130.862 378.301 130.862C378.031 130.862 377.743 130.79 377.563 130.718L377.239 132.032C377.545 132.158 377.923 132.23 378.373 132.23ZM385.833 130.538H395.409V129.44H385.833V130.538ZM400.244 132.5C403.25 132.5 405.176 130.952 405.176 129.134C405.176 127.514 404.042 126.812 401.774 126.812H399.866C398.552 126.812 398.138 126.362 398.138 125.732C398.138 125.21 398.426 124.868 398.768 124.58C399.218 124.796 399.758 124.904 400.226 124.904C402.224 124.904 403.808 123.608 403.808 121.52C403.808 120.674 403.484 119.954 403.016 119.504H405.014V118.226H401.612C401.27 118.1 400.784 117.992 400.226 117.992C398.246 117.992 396.554 119.324 396.554 121.484C396.554 122.654 397.202 123.59 397.85 124.112V124.184C397.328 124.544 396.752 125.174 396.752 125.984C396.752 126.758 397.13 127.28 397.634 127.604V127.676C396.734 128.252 396.194 129.062 396.194 129.89C396.194 131.564 397.85 132.5 400.244 132.5ZM400.226 123.806C399.092 123.806 398.138 122.888 398.138 121.484C398.138 120.026 399.074 119.18 400.226 119.18C401.378 119.18 402.314 120.044 402.314 121.484C402.314 122.888 401.36 123.806 400.226 123.806ZM400.46 131.384C398.696 131.384 397.634 130.718 397.634 129.656C397.634 129.098 397.922 128.504 398.624 128C399.074 128.126 399.524 128.162 399.902 128.162H401.594C402.872 128.162 403.574 128.468 403.574 129.386C403.574 130.394 402.35 131.384 400.46 131.384ZM406.75 128H408.388V121.736C409.036 120.062 410.044 119.468 410.854 119.468C411.25 119.468 411.466 119.522 411.808 119.63L412.114 118.19C411.79 118.046 411.502 117.992 411.07 117.992C409.972 117.992 408.964 118.766 408.298 120.008H408.244L408.082 118.226H406.75V128ZM416.92 128.252C419.314 128.252 421.438 126.362 421.438 123.14C421.438 119.864 419.314 117.992 416.92 117.992C414.508 117.992 412.384 119.864 412.384 123.14C412.384 126.362 414.508 128.252 416.92 128.252ZM416.92 126.884C415.21 126.884 414.076 125.372 414.076 123.14C414.076 120.872 415.21 119.36 416.92 119.36C418.612 119.36 419.746 120.872 419.746 123.14C419.746 125.372 418.612 126.884 416.92 126.884ZM426.522 128.252C427.872 128.252 428.844 127.532 429.762 126.47H429.798L429.942 128H431.292V118.226H429.654V125.174C428.736 126.326 428.016 126.812 427.026 126.812C425.73 126.812 425.172 126.038 425.172 124.22V118.226H423.534V124.418C423.534 126.92 424.47 128.252 426.522 128.252ZM434.252 132.122H435.89V128.828L435.854 127.118C436.736 127.838 437.654 128.252 438.536 128.252C440.786 128.252 442.784 126.308 442.784 122.978C442.784 119.954 441.434 117.992 438.896 117.992C437.762 117.992 436.682 118.622 435.8 119.36H435.746L435.584 118.226H434.252V132.122ZM438.284 126.866C437.636 126.866 436.772 126.596 435.89 125.858V120.71C436.844 119.828 437.672 119.36 438.5 119.36C440.354 119.36 441.092 120.818 441.092 122.996C441.092 125.408 439.886 126.866 438.284 126.866ZM443.632 130.538H453.208V129.44H443.632V130.538ZM456.999 128.252C458.205 128.252 459.303 127.622 460.221 126.848H460.293L460.437 128H461.787V122.006C461.787 119.576 460.779 117.992 458.385 117.992C456.819 117.992 455.451 118.676 454.551 119.252L455.199 120.404C455.955 119.882 456.981 119.342 458.133 119.342C459.735 119.342 460.131 120.548 460.131 121.808C455.973 122.276 454.137 123.338 454.137 125.462C454.137 127.226 455.361 128.252 456.999 128.252ZM457.449 126.92C456.495 126.92 455.739 126.47 455.739 125.354C455.739 124.094 456.837 123.284 460.131 122.906V125.624C459.195 126.47 458.403 126.92 457.449 126.92ZM467.087 128.252C469.391 128.252 470.633 126.938 470.633 125.336C470.633 123.482 469.085 122.906 467.663 122.366C466.547 121.97 465.557 121.61 465.557 120.674C465.557 119.918 466.115 119.27 467.357 119.27C468.221 119.27 468.923 119.648 469.589 120.134L470.381 119.09C469.625 118.478 468.545 117.992 467.339 117.992C465.215 117.992 463.973 119.198 463.973 120.746C463.973 122.42 465.467 123.068 466.817 123.59C467.897 123.986 469.067 124.436 469.067 125.426C469.067 126.29 468.419 126.974 467.123 126.974C465.953 126.974 465.089 126.488 464.243 125.804L463.433 126.902C464.351 127.658 465.701 128.252 467.087 128.252ZM475.147 128.252C477.451 128.252 478.693 126.938 478.693 125.336C478.693 123.482 477.145 122.906 475.723 122.366C474.607 121.97 473.617 121.61 473.617 120.674C473.617 119.918 474.175 119.27 475.417 119.27C476.281 119.27 476.983 119.648 477.649 120.134L478.441 119.09C477.685 118.478 476.605 117.992 475.399 117.992C473.275 117.992 472.033 119.198 472.033 120.746C472.033 122.42 473.527 123.068 474.877 123.59C475.957 123.986 477.127 124.436 477.127 125.426C477.127 126.29 476.479 126.974 475.183 126.974C474.013 126.974 473.149 126.488 472.303 125.804L471.493 126.902C472.411 127.658 473.761 128.252 475.147 128.252ZM484.449 128.252C486.843 128.252 488.967 126.362 488.967 123.14C488.967 119.864 486.843 117.992 484.449 117.992C482.037 117.992 479.913 119.864 479.913 123.14C479.913 126.362 482.037 128.252 484.449 128.252ZM484.449 126.884C482.739 126.884 481.605 125.372 481.605 123.14C481.605 120.872 482.739 119.36 484.449 119.36C486.141 119.36 487.275 120.872 487.275 123.14C487.275 125.372 486.141 126.884 484.449 126.884ZM495.041 128.252C496.211 128.252 497.345 127.784 498.209 127.01L497.507 125.912C496.895 126.452 496.085 126.884 495.203 126.884C493.403 126.884 492.161 125.372 492.161 123.14C492.161 120.872 493.457 119.36 495.257 119.36C496.013 119.36 496.625 119.702 497.201 120.224L498.029 119.144C497.345 118.514 496.445 117.992 495.167 117.992C492.665 117.992 490.469 119.864 490.469 123.14C490.469 126.362 492.449 128.252 495.041 128.252Z" fill="#F8F8F8" fill-opacity="0.5"/>
<path d="M81.962 145.324H82.988L83.294 141.976L83.348 140.122H81.602L81.656 141.976L81.962 145.324ZM85.508 145.324H86.516L86.858 141.976L86.894 140.122H85.148L85.184 141.976L85.508 145.324ZM92.0714 154.252C93.2774 154.252 94.3754 153.622 95.2934 152.848H95.3654L95.5094 154H96.8594V148.006C96.8594 145.576 95.8514 143.992 93.4574 143.992C91.8914 143.992 90.5234 144.676 89.6234 145.252L90.2714 146.404C91.0274 145.882 92.0534 145.342 93.2054 145.342C94.8074 145.342 95.2034 146.548 95.2034 147.808C91.0454 148.276 89.2094 149.338 89.2094 151.462C89.2094 153.226 90.4334 154.252 92.0714 154.252ZM92.5214 152.92C91.5674 152.92 90.8114 152.47 90.8114 151.354C90.8114 150.094 91.9094 149.284 95.2034 148.906V151.624C94.2674 152.47 93.4754 152.92 92.5214 152.92ZM102.16 154.252C104.464 154.252 105.706 152.938 105.706 151.336C105.706 149.482 104.158 148.906 102.736 148.366C101.62 147.97 100.63 147.61 100.63 146.674C100.63 145.918 101.188 145.27 102.43 145.27C103.294 145.27 103.996 145.648 104.662 146.134L105.454 145.09C104.698 144.478 103.618 143.992 102.412 143.992C100.288 143.992 99.046 145.198 99.046 146.746C99.046 148.42 100.54 149.068 101.89 149.59C102.97 149.986 104.14 150.436 104.14 151.426C104.14 152.29 103.492 152.974 102.196 152.974C101.026 152.974 100.162 152.488 99.316 151.804L98.506 152.902C99.424 153.658 100.774 154.252 102.16 154.252ZM110.22 154.252C112.524 154.252 113.766 152.938 113.766 151.336C113.766 149.482 112.218 148.906 110.796 148.366C109.68 147.97 108.69 147.61 108.69 146.674C108.69 145.918 109.248 145.27 110.49 145.27C111.354 145.27 112.056 145.648 112.722 146.134L113.514 145.09C112.758 144.478 111.678 143.992 110.472 143.992C108.348 143.992 107.106 145.198 107.106 146.746C107.106 148.42 108.6 149.068 109.95 149.59C111.03 149.986 112.2 150.436 112.2 151.426C112.2 152.29 111.552 152.974 110.256 152.974C109.086 152.974 108.222 152.488 107.376 151.804L106.566 152.902C107.484 153.658 108.834 154.252 110.22 154.252ZM119.522 154.252C121.916 154.252 124.04 152.362 124.04 149.14C124.04 145.864 121.916 143.992 119.522 143.992C117.11 143.992 114.986 145.864 114.986 149.14C114.986 152.362 117.11 154.252 119.522 154.252ZM119.522 152.884C117.812 152.884 116.678 151.372 116.678 149.14C116.678 146.872 117.812 145.36 119.522 145.36C121.214 145.36 122.348 146.872 122.348 149.14C122.348 151.372 121.214 152.884 119.522 152.884ZM130.114 154.252C131.284 154.252 132.418 153.784 133.282 153.01L132.58 151.912C131.968 152.452 131.158 152.884 130.276 152.884C128.476 152.884 127.234 151.372 127.234 149.14C127.234 146.872 128.53 145.36 130.33 145.36C131.086 145.36 131.698 145.702 132.274 146.224L133.102 145.144C132.418 144.514 131.518 143.992 130.24 143.992C127.738 143.992 125.542 145.864 125.542 149.14C125.542 152.362 127.522 154.252 130.114 154.252ZM135.096 154H136.734V144.226H135.096V154ZM135.924 142.21C136.554 142.21 137.022 141.796 137.022 141.112C137.022 140.482 136.554 140.068 135.924 140.068C135.276 140.068 134.826 140.482 134.826 141.112C134.826 141.796 135.276 142.21 135.924 142.21ZM141.943 154.252C143.149 154.252 144.247 153.622 145.165 152.848H145.237L145.381 154H146.731V148.006C146.731 145.576 145.723 143.992 143.329 143.992C141.763 143.992 140.395 144.676 139.495 145.252L140.143 146.404C140.899 145.882 141.925 145.342 143.077 145.342C144.679 145.342 145.075 146.548 145.075 147.808C140.917 148.276 139.081 149.338 139.081 151.462C139.081 153.226 140.305 154.252 141.943 154.252ZM142.393 152.92C141.439 152.92 140.683 152.47 140.683 151.354C140.683 150.094 141.781 149.284 145.075 148.906V151.624C144.139 152.47 143.347 152.92 142.393 152.92ZM152.219 154.252C152.831 154.252 153.479 154.072 154.019 153.874L153.695 152.65C153.389 152.776 152.939 152.92 152.597 152.92C151.463 152.92 151.085 152.218 151.085 151.03V145.558H153.731V144.226H151.085V141.472H149.699L149.519 144.226L147.989 144.334V145.558H149.447V150.994C149.447 152.938 150.131 154.252 152.219 154.252ZM155.584 154H157.222V144.226H155.584V154ZM156.412 142.21C157.042 142.21 157.51 141.796 157.51 141.112C157.51 140.482 157.042 140.068 156.412 140.068C155.764 140.068 155.314 140.482 155.314 141.112C155.314 141.796 155.764 142.21 156.412 142.21ZM163.979 154.252C166.373 154.252 168.497 152.362 168.497 149.14C168.497 145.864 166.373 143.992 163.979 143.992C161.567 143.992 159.443 145.864 159.443 149.14C159.443 152.362 161.567 154.252 163.979 154.252ZM163.979 152.884C162.269 152.884 161.135 151.372 161.135 149.14C161.135 146.872 162.269 145.36 163.979 145.36C165.671 145.36 166.805 146.872 166.805 149.14C166.805 151.372 165.671 152.884 163.979 152.884ZM170.737 154H172.375V146.908C173.347 145.936 174.049 145.414 175.039 145.414C176.335 145.414 176.893 146.188 176.893 148.024V154H178.549V147.808C178.549 145.324 177.613 143.992 175.561 143.992C174.211 143.992 173.203 144.73 172.285 145.648H172.231L172.069 144.226H170.737V154ZM181.669 145.324H182.695L183.001 141.976L183.055 140.122H181.309L181.363 141.976L181.669 145.324ZM185.215 145.324H186.223L186.565 141.976L186.601 140.122H184.855L184.891 141.976L185.215 145.324Z" fill="#78DCE8"/>
<path d="M196.11 157.06H197.01V156.124H196.47C195.39 156.124 195.102 155.584 195.102 154.288C195.102 153.082 195.21 152.002 195.21 150.652C195.21 149.356 194.904 148.708 194.004 148.456V148.384C194.904 148.132 195.21 147.484 195.21 146.188C195.21 144.82 195.102 143.758 195.102 142.534C195.102 141.238 195.39 140.698 196.47 140.698H197.01V139.762H196.11C194.526 139.762 193.752 140.374 193.752 142.462C193.752 143.902 193.932 144.964 193.932 146.35C193.932 147.106 193.572 147.88 192.222 147.898V148.924C193.572 148.942 193.932 149.716 193.932 150.508C193.932 151.858 193.752 152.92 193.752 154.396C193.752 156.484 194.526 157.06 196.11 157.06ZM267.547 171.828H276.187V170.604H267.547V171.828ZM267.547 176.13H276.187V174.906H267.547V176.13ZM318.746 197.828H327.386V196.604H318.746V197.828ZM318.746 202.13H327.386V200.906H318.746V202.13ZM80.612 261.06H81.494C83.096 261.06 83.852 260.484 83.852 258.396C83.852 256.92 83.672 255.858 83.672 254.508C83.672 253.716 84.032 252.942 85.4 252.924V251.898C84.032 251.88 83.672 251.106 83.672 250.35C83.672 248.964 83.852 247.902 83.852 246.462C83.852 244.374 83.096 243.762 81.494 243.762H80.612V244.698H81.116C82.214 244.698 82.502 245.238 82.502 246.534C82.502 247.758 82.394 248.82 82.394 250.188C82.394 251.484 82.718 252.132 83.582 252.384V252.456C82.718 252.708 82.394 253.356 82.394 254.652C82.394 256.002 82.502 257.082 82.502 258.288C82.502 259.584 82.214 260.124 81.116 260.124H80.612V261.06Z" fill="#FF6188"/>
<path d="M88.9868 180H90.6248V172.908C91.5968 171.936 92.2988 171.414 93.2888 171.414C94.5848 171.414 95.1428 172.188 95.1428 174.024V180H96.7988V173.808C96.7988 171.324 95.8628 169.992 93.8108 169.992C92.4608 169.992 91.4528 170.73 90.5348 171.648H90.4808L90.3188 170.226H88.9868V180ZM103.555 180.252C104.887 180.252 105.913 179.802 106.777 179.244L106.183 178.146C105.463 178.632 104.689 178.938 103.753 178.938C101.881 178.938 100.621 177.588 100.495 175.518H107.083C107.137 175.266 107.155 174.924 107.155 174.582C107.155 171.774 105.751 169.992 103.267 169.992C101.017 169.992 98.8751 171.954 98.8751 175.14C98.8751 178.344 100.945 180.252 103.555 180.252ZM100.477 174.33C100.693 172.404 101.917 171.306 103.285 171.306C104.833 171.306 105.715 172.368 105.715 174.33H100.477ZM112.034 180.252C112.646 180.252 113.294 180.072 113.834 179.874L113.51 178.65C113.204 178.776 112.754 178.92 112.412 178.92C111.278 178.92 110.9 178.218 110.9 177.03V171.558H113.546V170.226H110.9V167.472H109.514L109.334 170.226L107.804 170.334V171.558H109.262V176.994C109.262 178.938 109.946 180.252 112.034 180.252ZM116.947 180H118.855L120.223 174.762C120.493 173.826 120.691 172.926 120.889 171.918H120.979C121.213 172.926 121.393 173.808 121.645 174.744L123.067 180H125.065L127.693 170.226H126.127L124.705 175.896C124.471 176.832 124.291 177.696 124.093 178.614H124.021C123.787 177.696 123.571 176.832 123.337 175.896L121.789 170.226H120.187L118.675 175.896C118.423 176.814 118.225 177.696 118.009 178.614H117.919C117.739 177.696 117.559 176.832 117.361 175.896L115.885 170.226H114.211L116.947 180ZM133.146 180.252C135.54 180.252 137.664 178.362 137.664 175.14C137.664 171.864 135.54 169.992 133.146 169.992C130.734 169.992 128.61 171.864 128.61 175.14C128.61 178.362 130.734 180.252 133.146 180.252ZM133.146 178.884C131.436 178.884 130.302 177.372 130.302 175.14C130.302 172.872 131.436 171.36 133.146 171.36C134.838 171.36 135.972 172.872 135.972 175.14C135.972 177.372 134.838 178.884 133.146 178.884ZM139.904 180H141.542V173.736C142.19 172.062 143.198 171.468 144.008 171.468C144.404 171.468 144.62 171.522 144.962 171.63L145.268 170.19C144.944 170.046 144.656 169.992 144.224 169.992C143.126 169.992 142.118 170.766 141.452 172.008H141.398L141.236 170.226H139.904V180ZM146.522 180H148.142V177.426L149.96 175.284L152.822 180H154.604L150.932 174.168L154.19 170.226H152.354L148.196 175.392H148.142V165.69H146.522V180ZM154.672 182.538H164.248V181.44H154.672V182.538ZM165.788 180H167.426V170.226H165.788V180ZM166.616 168.21C167.246 168.21 167.714 167.796 167.714 167.112C167.714 166.482 167.246 166.068 166.616 166.068C165.968 166.068 165.518 166.482 165.518 167.112C165.518 167.796 165.968 168.21 166.616 168.21ZM170.385 180H172.023V172.908C172.995 171.936 173.697 171.414 174.687 171.414C175.983 171.414 176.541 172.188 176.541 174.024V180H178.197V173.808C178.197 171.324 177.261 169.992 175.209 169.992C173.859 169.992 172.851 170.73 171.933 171.648H171.879L171.717 170.226H170.385V180ZM184.072 180.252C184.684 180.252 185.332 180.072 185.872 179.874L185.548 178.65C185.242 178.776 184.792 178.92 184.45 178.92C183.316 178.92 182.938 178.218 182.938 177.03V171.558H185.584V170.226H182.938V167.472H181.552L181.372 170.226L179.842 170.334V171.558H181.3V176.994C181.3 178.938 181.984 180.252 184.072 180.252ZM191.063 180.252C192.395 180.252 193.421 179.802 194.285 179.244L193.691 178.146C192.971 178.632 192.197 178.938 191.261 178.938C189.389 178.938 188.129 177.588 188.003 175.518H194.591C194.645 175.266 194.663 174.924 194.663 174.582C194.663 171.774 193.259 169.992 190.775 169.992C188.525 169.992 186.383 171.954 186.383 175.14C186.383 178.344 188.453 180.252 191.063 180.252ZM187.985 174.33C188.201 172.404 189.425 171.306 190.793 171.306C192.341 171.306 193.223 172.368 193.223 174.33H187.985ZM196.727 180H198.365V173.736C199.013 172.062 200.021 171.468 200.831 171.468C201.227 171.468 201.443 171.522 201.785 171.63L202.091 170.19C201.767 170.046 201.479 169.992 201.047 169.992C199.949 169.992 198.941 170.766 198.275 172.008H198.221L198.059 170.226H196.727V180ZM203.598 180H205.236V168.696C205.236 167.418 205.686 166.77 206.622 166.77C206.982 166.77 207.36 166.86 207.738 167.022L208.08 165.762C207.63 165.582 207.054 165.438 206.46 165.438C204.516 165.438 203.598 166.698 203.598 168.66V180ZM202.266 171.558H207.324V170.226H203.688L202.266 170.334V171.558ZM210.632 180.252C211.838 180.252 212.936 179.622 213.854 178.848H213.926L214.07 180H215.42V174.006C215.42 171.576 214.412 169.992 212.018 169.992C210.452 169.992 209.084 170.676 208.184 171.252L208.832 172.404C209.588 171.882 210.614 171.342 211.766 171.342C213.368 171.342 213.764 172.548 213.764 173.808C209.606 174.276 207.77 175.338 207.77 177.462C207.77 179.226 208.994 180.252 210.632 180.252ZM211.082 178.92C210.128 178.92 209.372 178.47 209.372 177.354C209.372 176.094 210.47 175.284 213.764 174.906V177.624C212.828 178.47 212.036 178.92 211.082 178.92ZM221.999 180.252C223.169 180.252 224.303 179.784 225.167 179.01L224.465 177.912C223.853 178.452 223.043 178.884 222.161 178.884C220.361 178.884 219.119 177.372 219.119 175.14C219.119 172.872 220.415 171.36 222.215 171.36C222.971 171.36 223.583 171.702 224.159 172.224L224.987 171.144C224.303 170.514 223.403 169.992 222.125 169.992C219.623 169.992 217.427 171.864 217.427 175.14C217.427 178.362 219.407 180.252 221.999 180.252ZM230.448 180.252C231.78 180.252 232.806 179.802 233.67 179.244L233.076 178.146C232.356 178.632 231.582 178.938 230.646 178.938C228.774 178.938 227.514 177.588 227.388 175.518H233.976C234.03 175.266 234.048 174.924 234.048 174.582C234.048 171.774 232.644 169.992 230.16 169.992C227.91 169.992 225.768 171.954 225.768 175.14C225.768 178.344 227.838 180.252 230.448 180.252ZM227.37 174.33C227.586 172.404 228.81 171.306 230.178 171.306C231.726 171.306 232.608 172.368 232.608 174.33H227.37ZM234.691 182.538H244.267V181.44H234.691V182.538ZM245.808 180H247.446V170.226H245.808V180ZM246.636 168.21C247.266 168.21 247.734 167.796 247.734 167.112C247.734 166.482 247.266 166.068 246.636 166.068C245.988 166.068 245.538 166.482 245.538 167.112C245.538 167.796 245.988 168.21 246.636 168.21ZM253.717 180.252C254.905 180.252 255.931 179.622 256.705 178.848H256.741L256.885 180H258.235V165.69H256.597V169.434L256.669 171.126C255.823 170.406 255.067 169.992 253.933 169.992C251.701 169.992 249.685 171.954 249.685 175.14C249.685 178.398 251.269 180.252 253.717 180.252ZM254.077 178.866C252.367 178.866 251.395 177.462 251.395 175.122C251.395 172.89 252.637 171.36 254.203 171.36C255.013 171.36 255.769 171.648 256.597 172.404V177.534C255.787 178.416 254.995 178.866 254.077 178.866ZM88.9868 206H90.6248V198.908C91.5968 197.936 92.2988 197.414 93.2888 197.414C94.5848 197.414 95.1428 198.188 95.1428 200.024V206H96.7988V199.808C96.7988 197.324 95.8628 195.992 93.8108 195.992C92.4608 195.992 91.4528 196.73 90.5348 197.648H90.4808L90.3188 196.226H88.9868V206ZM103.555 206.252C104.887 206.252 105.913 205.802 106.777 205.244L106.183 204.146C105.463 204.632 104.689 204.938 103.753 204.938C101.881 204.938 100.621 203.588 100.495 201.518H107.083C107.137 201.266 107.155 200.924 107.155 200.582C107.155 197.774 105.751 195.992 103.267 195.992C101.017 195.992 98.8751 197.954 98.8751 201.14C98.8751 204.344 100.945 206.252 103.555 206.252ZM100.477 200.33C100.693 198.404 101.917 197.306 103.285 197.306C104.833 197.306 105.715 198.368 105.715 200.33H100.477ZM112.034 206.252C112.646 206.252 113.294 206.072 113.834 205.874L113.51 204.65C113.204 204.776 112.754 204.92 112.412 204.92C111.278 204.92 110.9 204.218 110.9 203.03V197.558H113.546V196.226H110.9V193.472H109.514L109.334 196.226L107.804 196.334V197.558H109.262V202.994C109.262 204.938 109.946 206.252 112.034 206.252ZM116.947 206H118.855L120.223 200.762C120.493 199.826 120.691 198.926 120.889 197.918H120.979C121.213 198.926 121.393 199.808 121.645 200.744L123.067 206H125.065L127.693 196.226H126.127L124.705 201.896C124.471 202.832 124.291 203.696 124.093 204.614H124.021C123.787 203.696 123.571 202.832 123.337 201.896L121.789 196.226H120.187L118.675 201.896C118.423 202.814 118.225 203.696 118.009 204.614H117.919C117.739 203.696 117.559 202.832 117.361 201.896L115.885 196.226H114.211L116.947 206ZM133.146 206.252C135.54 206.252 137.664 204.362 137.664 201.14C137.664 197.864 135.54 195.992 133.146 195.992C130.734 195.992 128.61 197.864 128.61 201.14C128.61 204.362 130.734 206.252 133.146 206.252ZM133.146 204.884C131.436 204.884 130.302 203.372 130.302 201.14C130.302 198.872 131.436 197.36 133.146 197.36C134.838 197.36 135.972 198.872 135.972 201.14C135.972 203.372 134.838 204.884 133.146 204.884ZM139.904 206H141.542V199.736C142.19 198.062 143.198 197.468 144.008 197.468C144.404 197.468 144.62 197.522 144.962 197.63L145.268 196.19C144.944 196.046 144.656 195.992 144.224 195.992C143.126 195.992 142.118 196.766 141.452 198.008H141.398L141.236 196.226H139.904V206ZM146.522 206H148.142V203.426L149.96 201.284L152.822 206H154.604L150.932 200.168L154.19 196.226H152.354L148.196 201.392H148.142V191.69H146.522V206ZM154.672 208.538H164.248V207.44H154.672V208.538ZM168.344 206.252C170.648 206.252 171.89 204.938 171.89 203.336C171.89 201.482 170.342 200.906 168.92 200.366C167.804 199.97 166.814 199.61 166.814 198.674C166.814 197.918 167.372 197.27 168.614 197.27C169.478 197.27 170.18 197.648 170.846 198.134L171.638 197.09C170.882 196.478 169.802 195.992 168.596 195.992C166.472 195.992 165.23 197.198 165.23 198.746C165.23 200.42 166.724 201.068 168.074 201.59C169.154 201.986 170.324 202.436 170.324 203.426C170.324 204.29 169.676 204.974 168.38 204.974C167.21 204.974 166.346 204.488 165.5 203.804L164.69 204.902C165.608 205.658 166.958 206.252 168.344 206.252ZM177.79 206.252C179.122 206.252 180.148 205.802 181.012 205.244L180.418 204.146C179.698 204.632 178.924 204.938 177.988 204.938C176.116 204.938 174.856 203.588 174.73 201.518H181.318C181.372 201.266 181.39 200.924 181.39 200.582C181.39 197.774 179.986 195.992 177.502 195.992C175.252 195.992 173.11 197.954 173.11 201.14C173.11 204.344 175.18 206.252 177.79 206.252ZM174.712 200.33C174.928 198.404 176.152 197.306 177.52 197.306C179.068 197.306 179.95 198.368 179.95 200.33H174.712ZM187.289 206.252C188.459 206.252 189.593 205.784 190.457 205.01L189.755 203.912C189.143 204.452 188.333 204.884 187.451 204.884C185.651 204.884 184.409 203.372 184.409 201.14C184.409 198.872 185.705 197.36 187.505 197.36C188.261 197.36 188.873 197.702 189.449 198.224L190.277 197.144C189.593 196.514 188.693 195.992 187.415 195.992C184.913 195.992 182.717 197.864 182.717 201.14C182.717 204.362 184.697 206.252 187.289 206.252ZM195.115 206.252C196.465 206.252 197.437 205.532 198.355 204.47H198.391L198.535 206H199.885V196.226H198.247V203.174C197.329 204.326 196.609 204.812 195.619 204.812C194.323 204.812 193.765 204.038 193.765 202.22V196.226H192.127V202.418C192.127 204.92 193.063 206.252 195.115 206.252ZM202.845 206H204.483V199.736C205.131 198.062 206.139 197.468 206.949 197.468C207.345 197.468 207.561 197.522 207.903 197.63L208.209 196.19C207.885 196.046 207.597 195.992 207.165 195.992C206.067 195.992 205.059 196.766 204.393 198.008H204.339L204.177 196.226H202.845V206ZM209.463 206H211.101V196.226H209.463V206ZM210.291 194.21C210.921 194.21 211.389 193.796 211.389 193.112C211.389 192.482 210.921 192.068 210.291 192.068C209.643 192.068 209.193 192.482 209.193 193.112C209.193 193.796 209.643 194.21 210.291 194.21ZM217.12 206.252C217.732 206.252 218.38 206.072 218.92 205.874L218.596 204.65C218.29 204.776 217.84 204.92 217.498 204.92C216.364 204.92 215.986 204.218 215.986 203.03V197.558H218.632V196.226H215.986V193.472H214.6L214.42 196.226L212.89 196.334V197.558H214.348V202.994C214.348 204.938 215.032 206.252 217.12 206.252ZM220.629 210.23C222.591 210.23 223.599 208.754 224.283 206.828L227.973 196.226H226.371L224.607 201.662C224.355 202.544 224.067 203.516 223.797 204.416H223.707C223.383 203.516 223.059 202.526 222.753 201.662L220.755 196.226H219.063L222.987 206.018L222.771 206.756C222.357 207.962 221.655 208.862 220.557 208.862C220.287 208.862 219.999 208.79 219.819 208.718L219.495 210.032C219.801 210.158 220.179 210.23 220.629 210.23ZM228.09 208.538H237.666V207.44H228.09V208.538ZM242.501 210.5C245.507 210.5 247.433 208.952 247.433 207.134C247.433 205.514 246.299 204.812 244.031 204.812H242.123C240.809 204.812 240.395 204.362 240.395 203.732C240.395 203.21 240.683 202.868 241.025 202.58C241.475 202.796 242.015 202.904 242.483 202.904C244.481 202.904 246.065 201.608 246.065 199.52C246.065 198.674 245.741 197.954 245.273 197.504H247.271V196.226H243.869C243.527 196.1 243.041 195.992 242.483 195.992C240.503 195.992 238.811 197.324 238.811 199.484C238.811 200.654 239.459 201.59 240.107 202.112V202.184C239.585 202.544 239.009 203.174 239.009 203.984C239.009 204.758 239.387 205.28 239.891 205.604V205.676C238.991 206.252 238.451 207.062 238.451 207.89C238.451 209.564 240.107 210.5 242.501 210.5ZM242.483 201.806C241.349 201.806 240.395 200.888 240.395 199.484C240.395 198.026 241.331 197.18 242.483 197.18C243.635 197.18 244.571 198.044 244.571 199.484C244.571 200.888 243.617 201.806 242.483 201.806ZM242.717 209.384C240.953 209.384 239.891 208.718 239.891 207.656C239.891 207.098 240.179 206.504 240.881 206C241.331 206.126 241.781 206.162 242.159 206.162H243.851C245.129 206.162 245.831 206.468 245.831 207.386C245.831 208.394 244.607 209.384 242.717 209.384ZM249.007 206H250.645V199.736C251.293 198.062 252.301 197.468 253.111 197.468C253.507 197.468 253.723 197.522 254.065 197.63L254.371 196.19C254.047 196.046 253.759 195.992 253.327 195.992C252.229 195.992 251.221 196.766 250.555 198.008H250.501L250.339 196.226H249.007V206ZM259.177 206.252C261.571 206.252 263.695 204.362 263.695 201.14C263.695 197.864 261.571 195.992 259.177 195.992C256.765 195.992 254.641 197.864 254.641 201.14C254.641 204.362 256.765 206.252 259.177 206.252ZM259.177 204.884C257.467 204.884 256.333 203.372 256.333 201.14C256.333 198.872 257.467 197.36 259.177 197.36C260.869 197.36 262.003 198.872 262.003 201.14C262.003 203.372 260.869 204.884 259.177 204.884ZM268.779 206.252C270.129 206.252 271.101 205.532 272.019 204.47H272.055L272.199 206H273.549V196.226H271.911V203.174C270.993 204.326 270.273 204.812 269.283 204.812C267.987 204.812 267.429 204.038 267.429 202.22V196.226H265.791V202.418C265.791 204.92 266.727 206.252 268.779 206.252ZM276.509 210.122H278.147V206.828L278.111 205.118C278.993 205.838 279.911 206.252 280.793 206.252C283.043 206.252 285.041 204.308 285.041 200.978C285.041 197.954 283.691 195.992 281.153 195.992C280.019 195.992 278.939 196.622 278.057 197.36H278.003L277.841 196.226H276.509V210.122ZM280.541 204.866C279.893 204.866 279.029 204.596 278.147 203.858V198.71C279.101 197.828 279.929 197.36 280.757 197.36C282.611 197.36 283.349 198.818 283.349 200.996C283.349 203.408 282.143 204.866 280.541 204.866ZM285.889 208.538H295.465V207.44H285.889V208.538ZM297.006 206H298.644V196.226H297.006V206ZM297.834 194.21C298.464 194.21 298.932 193.796 298.932 193.112C298.932 192.482 298.464 192.068 297.834 192.068C297.186 192.068 296.736 192.482 296.736 193.112C296.736 193.796 297.186 194.21 297.834 194.21ZM304.915 206.252C306.103 206.252 307.129 205.622 307.903 204.848H307.939L308.083 206H309.433V191.69H307.795V195.434L307.867 197.126C307.021 196.406 306.265 195.992 305.131 195.992C302.899 195.992 300.883 197.954 300.883 201.14C300.883 204.398 302.467 206.252 304.915 206.252ZM305.275 204.866C303.565 204.866 302.593 203.462 302.593 201.122C302.593 198.89 303.835 197.36 305.401 197.36C306.211 197.36 306.967 197.648 307.795 198.404V203.534C306.985 204.416 306.193 204.866 305.275 204.866Z" fill="#F8F8F8"/>
<path d="M287.743 180.252C288.949 180.252 290.047 179.622 290.965 178.848H291.037L291.181 180H292.531V174.006C292.531 171.576 291.523 169.992 289.129 169.992C287.563 169.992 286.195 170.676 285.295 171.252L285.943 172.404C286.699 171.882 287.725 171.342 288.877 171.342C290.479 171.342 290.875 172.548 290.875 173.808C286.717 174.276 284.881 175.338 284.881 177.462C284.881 179.226 286.105 180.252 287.743 180.252ZM288.193 178.92C287.239 178.92 286.483 178.47 286.483 177.354C286.483 176.094 287.581 175.284 290.875 174.906V177.624C289.939 178.47 289.147 178.92 288.193 178.92ZM294.231 180H301.647V178.668H296.319L301.467 171.108V170.226H294.807V171.558H299.397L294.231 179.136V180ZM306.056 180.252C307.406 180.252 308.378 179.532 309.296 178.47H309.332L309.476 180H310.826V170.226H309.188V177.174C308.27 178.326 307.55 178.812 306.56 178.812C305.264 178.812 304.706 178.038 304.706 176.22V170.226H303.068V176.418C303.068 178.92 304.004 180.252 306.056 180.252ZM313.786 180H315.424V173.736C316.072 172.062 317.08 171.468 317.89 171.468C318.286 171.468 318.502 171.522 318.844 171.63L319.15 170.19C318.826 170.046 318.538 169.992 318.106 169.992C317.008 169.992 316 170.766 315.334 172.008H315.28L315.118 170.226H313.786V180ZM324.1 180.252C325.432 180.252 326.458 179.802 327.322 179.244L326.728 178.146C326.008 178.632 325.234 178.938 324.298 178.938C322.426 178.938 321.166 177.588 321.04 175.518H327.628C327.682 175.266 327.7 174.924 327.7 174.582C327.7 171.774 326.296 169.992 323.812 169.992C321.562 169.992 319.42 171.954 319.42 175.14C319.42 178.344 321.49 180.252 324.1 180.252ZM321.022 174.33C321.238 172.404 322.462 171.306 323.83 171.306C325.378 171.306 326.26 172.368 326.26 174.33H321.022ZM329.765 180H331.403V173.736C332.051 172.062 333.059 171.468 333.869 171.468C334.265 171.468 334.481 171.522 334.823 171.63L335.129 170.19C334.805 170.046 334.517 169.992 334.085 169.992C332.987 169.992 331.979 170.766 331.313 172.008H331.259L331.097 170.226H329.765V180ZM336.383 180H338.021V172.908C338.903 171.918 339.731 171.414 340.469 171.414C341.729 171.414 342.305 172.188 342.305 174.024V180H343.943V172.908C344.861 171.918 345.635 171.414 346.391 171.414C347.651 171.414 348.227 172.188 348.227 174.024V180H349.865V173.808C349.865 171.324 348.893 169.992 346.895 169.992C345.707 169.992 344.681 170.766 343.655 171.846C343.277 170.694 342.467 169.992 340.973 169.992C339.803 169.992 338.777 170.73 337.931 171.648H337.877L337.715 170.226H336.383V180ZM351.265 182.538H360.841V181.44H351.265V182.538ZM362.382 180H364.02V172.908C364.992 171.936 365.694 171.414 366.684 171.414C367.98 171.414 368.538 172.188 368.538 174.024V180H370.194V173.808C370.194 171.324 369.258 169.992 367.206 169.992C365.856 169.992 364.848 170.73 363.93 171.648H363.876L363.714 170.226H362.382V180ZM376.951 180.252C378.283 180.252 379.309 179.802 380.173 179.244L379.579 178.146C378.859 178.632 378.085 178.938 377.149 178.938C375.277 178.938 374.017 177.588 373.891 175.518H380.479C380.533 175.266 380.551 174.924 380.551 174.582C380.551 171.774 379.147 169.992 376.663 169.992C374.413 169.992 372.271 171.954 372.271 175.14C372.271 178.344 374.341 180.252 376.951 180.252ZM373.873 174.33C374.089 172.404 375.313 171.306 376.681 171.306C378.229 171.306 379.111 172.368 379.111 174.33H373.873ZM385.429 180.252C386.041 180.252 386.689 180.072 387.229 179.874L386.905 178.65C386.599 178.776 386.149 178.92 385.807 178.92C384.673 178.92 384.295 178.218 384.295 177.03V171.558H386.941V170.226H384.295V167.472H382.909L382.729 170.226L381.199 170.334V171.558H382.657V176.994C382.657 178.938 383.341 180.252 385.429 180.252ZM390.342 180H392.25L393.618 174.762C393.888 173.826 394.086 172.926 394.284 171.918H394.374C394.608 172.926 394.788 173.808 395.04 174.744L396.462 180H398.46L401.088 170.226H399.522L398.1 175.896C397.866 176.832 397.686 177.696 397.488 178.614H397.416C397.182 177.696 396.966 176.832 396.732 175.896L395.184 170.226H393.582L392.07 175.896C391.818 176.814 391.62 177.696 391.404 178.614H391.314C391.134 177.696 390.954 176.832 390.756 175.896L389.28 170.226H387.606L390.342 180ZM406.541 180.252C408.935 180.252 411.059 178.362 411.059 175.14C411.059 171.864 408.935 169.992 406.541 169.992C404.129 169.992 402.005 171.864 402.005 175.14C402.005 178.362 404.129 180.252 406.541 180.252ZM406.541 178.884C404.831 178.884 403.697 177.372 403.697 175.14C403.697 172.872 404.831 171.36 406.541 171.36C408.233 171.36 409.367 172.872 409.367 175.14C409.367 177.372 408.233 178.884 406.541 178.884ZM413.299 180H414.937V173.736C415.585 172.062 416.593 171.468 417.403 171.468C417.799 171.468 418.015 171.522 418.357 171.63L418.663 170.19C418.339 170.046 418.051 169.992 417.619 169.992C416.521 169.992 415.513 170.766 414.847 172.008H414.793L414.631 170.226H413.299V180ZM419.917 180H421.537V177.426L423.355 175.284L426.217 180H427.999L424.327 174.168L427.585 170.226H425.749L421.591 175.392H421.537V165.69H419.917V180ZM428.067 182.538H437.643V181.44H428.067V182.538ZM439.184 180H440.822V170.226H439.184V180ZM440.012 168.21C440.642 168.21 441.11 167.796 441.11 167.112C441.11 166.482 440.642 166.068 440.012 166.068C439.364 166.068 438.914 166.482 438.914 167.112C438.914 167.796 439.364 168.21 440.012 168.21ZM443.781 180H445.419V172.908C446.391 171.936 447.093 171.414 448.083 171.414C449.379 171.414 449.937 172.188 449.937 174.024V180H451.593V173.808C451.593 171.324 450.657 169.992 448.605 169.992C447.255 169.992 446.247 170.73 445.329 171.648H445.275L445.113 170.226H443.781V180ZM457.467 180.252C458.079 180.252 458.727 180.072 459.267 179.874L458.943 178.65C458.637 178.776 458.187 178.92 457.845 178.92C456.711 178.92 456.333 178.218 456.333 177.03V171.558H458.979V170.226H456.333V167.472H454.947L454.767 170.226L453.237 170.334V171.558H454.695V176.994C454.695 178.938 455.379 180.252 457.467 180.252ZM464.458 180.252C465.79 180.252 466.816 179.802 467.68 179.244L467.086 178.146C466.366 178.632 465.592 178.938 464.656 178.938C462.784 178.938 461.524 177.588 461.398 175.518H467.986C468.04 175.266 468.058 174.924 468.058 174.582C468.058 171.774 466.654 169.992 464.17 169.992C461.92 169.992 459.778 171.954 459.778 175.14C459.778 178.344 461.848 180.252 464.458 180.252ZM461.38 174.33C461.596 172.404 462.82 171.306 464.188 171.306C465.736 171.306 466.618 172.368 466.618 174.33H461.38ZM470.123 180H471.761V173.736C472.409 172.062 473.417 171.468 474.227 171.468C474.623 171.468 474.839 171.522 475.181 171.63L475.487 170.19C475.163 170.046 474.875 169.992 474.443 169.992C473.345 169.992 472.337 170.766 471.671 172.008H471.617L471.455 170.226H470.123V180ZM476.993 180H478.631V168.696C478.631 167.418 479.081 166.77 480.017 166.77C480.377 166.77 480.755 166.86 481.133 167.022L481.475 165.762C481.025 165.582 480.449 165.438 479.855 165.438C477.911 165.438 476.993 166.698 476.993 168.66V180ZM475.661 171.558H480.719V170.226H477.083L475.661 170.334V171.558ZM484.028 180.252C485.234 180.252 486.332 179.622 487.25 178.848H487.322L487.466 180H488.816V174.006C488.816 171.576 487.808 169.992 485.414 169.992C483.848 169.992 482.48 170.676 481.58 171.252L482.228 172.404C482.984 171.882 484.01 171.342 485.162 171.342C486.764 171.342 487.16 172.548 487.16 173.808C483.002 174.276 481.166 175.338 481.166 177.462C481.166 179.226 482.39 180.252 484.028 180.252ZM484.478 178.92C483.524 178.92 482.768 178.47 482.768 177.354C482.768 176.094 483.866 175.284 487.16 174.906V177.624C486.224 178.47 485.432 178.92 484.478 178.92ZM495.394 180.252C496.564 180.252 497.698 179.784 498.562 179.01L497.86 177.912C497.248 178.452 496.438 178.884 495.556 178.884C493.756 178.884 492.514 177.372 492.514 175.14C492.514 172.872 493.81 171.36 495.61 171.36C496.366 171.36 496.978 171.702 497.554 172.224L498.382 171.144C497.698 170.514 496.798 169.992 495.52 169.992C493.018 169.992 490.822 171.864 490.822 175.14C490.822 178.362 492.802 180.252 495.394 180.252ZM83.906 232.252C85.112 232.252 86.21 231.622 87.128 230.848H87.2L87.344 232H88.694V226.006C88.694 223.576 87.686 221.992 85.292 221.992C83.726 221.992 82.358 222.676 81.458 223.252L82.106 224.404C82.862 223.882 83.888 223.342 85.04 223.342C86.642 223.342 87.038 224.548 87.038 225.808C82.88 226.276 81.044 227.338 81.044 229.462C81.044 231.226 82.268 232.252 83.906 232.252ZM84.356 230.92C83.402 230.92 82.646 230.47 82.646 229.354C82.646 228.094 83.744 227.284 87.038 226.906V229.624C86.102 230.47 85.31 230.92 84.356 230.92ZM90.3946 232H97.8106V230.668H92.4826L97.6306 223.108V222.226H90.9706V223.558H95.5606L90.3946 231.136V232ZM102.219 232.252C103.569 232.252 104.541 231.532 105.459 230.47H105.495L105.639 232H106.989V222.226H105.351V229.174C104.433 230.326 103.713 230.812 102.723 230.812C101.427 230.812 100.869 230.038 100.869 228.22V222.226H99.2315V228.418C99.2315 230.92 100.167 232.252 102.219 232.252ZM109.949 232H111.587V225.736C112.235 224.062 113.243 223.468 114.053 223.468C114.449 223.468 114.665 223.522 115.007 223.63L115.313 222.19C114.989 222.046 114.701 221.992 114.269 221.992C113.171 221.992 112.163 222.766 111.497 224.008H111.443L111.281 222.226H109.949V232ZM120.263 232.252C121.595 232.252 122.621 231.802 123.485 231.244L122.891 230.146C122.171 230.632 121.397 230.938 120.461 230.938C118.589 230.938 117.329 229.588 117.203 227.518H123.791C123.845 227.266 123.863 226.924 123.863 226.582C123.863 223.774 122.459 221.992 119.975 221.992C117.725 221.992 115.583 223.954 115.583 227.14C115.583 230.344 117.653 232.252 120.263 232.252ZM117.185 226.33C117.401 224.404 118.625 223.306 119.993 223.306C121.541 223.306 122.423 224.368 122.423 226.33H117.185ZM125.928 232H127.566V225.736C128.214 224.062 129.222 223.468 130.032 223.468C130.428 223.468 130.644 223.522 130.986 223.63L131.292 222.19C130.968 222.046 130.68 221.992 130.248 221.992C129.15 221.992 128.142 222.766 127.476 224.008H127.422L127.26 222.226H125.928V232ZM132.547 232H134.185V224.908C135.067 223.918 135.895 223.414 136.633 223.414C137.893 223.414 138.469 224.188 138.469 226.024V232H140.107V224.908C141.025 223.918 141.799 223.414 142.555 223.414C143.815 223.414 144.391 224.188 144.391 226.024V232H146.029V225.808C146.029 223.324 145.057 221.992 143.059 221.992C141.871 221.992 140.845 222.766 139.819 223.846C139.441 222.694 138.631 221.992 137.137 221.992C135.967 221.992 134.941 222.73 134.095 223.648H134.041L133.879 222.226H132.547V232ZM147.429 234.538H157.005V233.44H147.429V234.538ZM158.546 232H160.184V224.908C161.156 223.936 161.858 223.414 162.848 223.414C164.144 223.414 164.702 224.188 164.702 226.024V232H166.358V225.808C166.358 223.324 165.422 221.992 163.37 221.992C162.02 221.992 161.012 222.73 160.094 223.648H160.04L159.878 222.226H158.546V232ZM173.114 232.252C174.446 232.252 175.472 231.802 176.336 231.244L175.742 230.146C175.022 230.632 174.248 230.938 173.312 230.938C171.44 230.938 170.18 229.588 170.054 227.518H176.642C176.696 227.266 176.714 226.924 176.714 226.582C176.714 223.774 175.31 221.992 172.826 221.992C170.576 221.992 168.434 223.954 168.434 227.14C168.434 230.344 170.504 232.252 173.114 232.252ZM170.036 226.33C170.252 224.404 171.476 223.306 172.844 223.306C174.392 223.306 175.274 224.368 175.274 226.33H170.036ZM181.593 232.252C182.205 232.252 182.853 232.072 183.393 231.874L183.069 230.65C182.763 230.776 182.313 230.92 181.971 230.92C180.837 230.92 180.459 230.218 180.459 229.03V223.558H183.105V222.226H180.459V219.472H179.073L178.893 222.226L177.363 222.334V223.558H178.821V228.994C178.821 230.938 179.505 232.252 181.593 232.252ZM186.506 232H188.414L189.782 226.762C190.052 225.826 190.25 224.926 190.448 223.918H190.538C190.772 224.926 190.952 225.808 191.204 226.744L192.626 232H194.624L197.252 222.226H195.686L194.264 227.896C194.03 228.832 193.85 229.696 193.652 230.614H193.58C193.346 229.696 193.13 228.832 192.896 227.896L191.348 222.226H189.746L188.234 227.896C187.982 228.814 187.784 229.696 187.568 230.614H187.478C187.298 229.696 187.118 228.832 186.92 227.896L185.444 222.226H183.77L186.506 232ZM202.704 232.252C205.098 232.252 207.222 230.362 207.222 227.14C207.222 223.864 205.098 221.992 202.704 221.992C200.292 221.992 198.168 223.864 198.168 227.14C198.168 230.362 200.292 232.252 202.704 232.252ZM202.704 230.884C200.994 230.884 199.86 229.372 199.86 227.14C199.86 224.872 200.994 223.36 202.704 223.36C204.396 223.36 205.53 224.872 205.53 227.14C205.53 229.372 204.396 230.884 202.704 230.884ZM209.462 232H211.1V225.736C211.748 224.062 212.756 223.468 213.566 223.468C213.962 223.468 214.178 223.522 214.52 223.63L214.826 222.19C214.502 222.046 214.214 221.992 213.782 221.992C212.684 221.992 211.676 222.766 211.01 224.008H210.956L210.794 222.226H209.462V232ZM216.081 232H217.701V229.426L219.519 227.284L222.381 232H224.163L220.491 226.168L223.749 222.226H221.913L217.755 227.392H217.701V217.69H216.081V232ZM224.23 234.538H233.806V233.44H224.23V234.538ZM237.903 232.252C240.207 232.252 241.449 230.938 241.449 229.336C241.449 227.482 239.901 226.906 238.479 226.366C237.363 225.97 236.373 225.61 236.373 224.674C236.373 223.918 236.931 223.27 238.173 223.27C239.037 223.27 239.739 223.648 240.405 224.134L241.197 223.09C240.441 222.478 239.361 221.992 238.155 221.992C236.031 221.992 234.789 223.198 234.789 224.746C234.789 226.42 236.283 227.068 237.633 227.59C238.713 227.986 239.883 228.436 239.883 229.426C239.883 230.29 239.235 230.974 237.939 230.974C236.769 230.974 235.905 230.488 235.059 229.804L234.249 230.902C235.167 231.658 236.517 232.252 237.903 232.252ZM247.349 232.252C248.681 232.252 249.707 231.802 250.571 231.244L249.977 230.146C249.257 230.632 248.483 230.938 247.547 230.938C245.675 230.938 244.415 229.588 244.289 227.518H250.877C250.931 227.266 250.949 226.924 250.949 226.582C250.949 223.774 249.545 221.992 247.061 221.992C244.811 221.992 242.669 223.954 242.669 227.14C242.669 230.344 244.739 232.252 247.349 232.252ZM244.271 226.33C244.487 224.404 245.711 223.306 247.079 223.306C248.627 223.306 249.509 224.368 249.509 226.33H244.271ZM256.848 232.252C258.018 232.252 259.152 231.784 260.016 231.01L259.314 229.912C258.702 230.452 257.892 230.884 257.01 230.884C255.21 230.884 253.968 229.372 253.968 227.14C253.968 224.872 255.264 223.36 257.064 223.36C257.82 223.36 258.432 223.702 259.008 224.224L259.836 223.144C259.152 222.514 258.252 221.992 256.974 221.992C254.472 221.992 252.276 223.864 252.276 227.14C252.276 230.362 254.256 232.252 256.848 232.252ZM264.674 232.252C266.024 232.252 266.996 231.532 267.914 230.47H267.95L268.094 232H269.444V222.226H267.806V229.174C266.888 230.326 266.168 230.812 265.178 230.812C263.882 230.812 263.324 230.038 263.324 228.22V222.226H261.686V228.418C261.686 230.92 262.622 232.252 264.674 232.252ZM272.403 232H274.041V225.736C274.689 224.062 275.697 223.468 276.507 223.468C276.903 223.468 277.119 223.522 277.461 223.63L277.767 222.19C277.443 222.046 277.155 221.992 276.723 221.992C275.625 221.992 274.617 222.766 273.951 224.008H273.897L273.735 222.226H272.403V232ZM279.022 232H280.66V222.226H279.022V232ZM279.85 220.21C280.48 220.21 280.948 219.796 280.948 219.112C280.948 218.482 280.48 218.068 279.85 218.068C279.202 218.068 278.752 218.482 278.752 219.112C278.752 219.796 279.202 220.21 279.85 220.21ZM286.679 232.252C287.291 232.252 287.939 232.072 288.479 231.874L288.155 230.65C287.849 230.776 287.399 230.92 287.057 230.92C285.923 230.92 285.545 230.218 285.545 229.03V223.558H288.191V222.226H285.545V219.472H284.159L283.979 222.226L282.449 222.334V223.558H283.907V228.994C283.907 230.938 284.591 232.252 286.679 232.252ZM290.188 236.23C292.15 236.23 293.158 234.754 293.842 232.828L297.532 222.226H295.93L294.166 227.662C293.914 228.544 293.626 229.516 293.356 230.416H293.266C292.942 229.516 292.618 228.526 292.312 227.662L290.314 222.226H288.622L292.546 232.018L292.33 232.756C291.916 233.962 291.214 234.862 290.116 234.862C289.846 234.862 289.558 234.79 289.378 234.718L289.054 236.032C289.36 236.158 289.738 236.23 290.188 236.23ZM297.649 234.538H307.225V233.44H297.649V234.538ZM312.059 236.5C315.065 236.5 316.991 234.952 316.991 233.134C316.991 231.514 315.857 230.812 313.589 230.812H311.681C310.367 230.812 309.953 230.362 309.953 229.732C309.953 229.21 310.241 228.868 310.583 228.58C311.033 228.796 311.573 228.904 312.041 228.904C314.039 228.904 315.623 227.608 315.623 225.52C315.623 224.674 315.299 223.954 314.831 223.504H316.829V222.226H313.427C313.085 222.1 312.599 221.992 312.041 221.992C310.061 221.992 308.369 223.324 308.369 225.484C308.369 226.654 309.017 227.59 309.665 228.112V228.184C309.143 228.544 308.567 229.174 308.567 229.984C308.567 230.758 308.945 231.28 309.449 231.604V231.676C308.549 232.252 308.009 233.062 308.009 233.89C308.009 235.564 309.665 236.5 312.059 236.5ZM312.041 227.806C310.907 227.806 309.953 226.888 309.953 225.484C309.953 224.026 310.889 223.18 312.041 223.18C313.193 223.18 314.129 224.044 314.129 225.484C314.129 226.888 313.175 227.806 312.041 227.806ZM312.275 235.384C310.511 235.384 309.449 234.718 309.449 233.656C309.449 233.098 309.737 232.504 310.439 232C310.889 232.126 311.339 232.162 311.717 232.162H313.409C314.687 232.162 315.389 232.468 315.389 233.386C315.389 234.394 314.165 235.384 312.275 235.384ZM318.566 232H320.204V225.736C320.852 224.062 321.86 223.468 322.67 223.468C323.066 223.468 323.282 223.522 323.624 223.63L323.93 222.19C323.606 222.046 323.318 221.992 322.886 221.992C321.788 221.992 320.78 222.766 320.114 224.008H320.06L319.898 222.226H318.566V232ZM328.736 232.252C331.13 232.252 333.254 230.362 333.254 227.14C333.254 223.864 331.13 221.992 328.736 221.992C326.324 221.992 324.2 223.864 324.2 227.14C324.2 230.362 326.324 232.252 328.736 232.252ZM328.736 230.884C327.026 230.884 325.892 229.372 325.892 227.14C325.892 224.872 327.026 223.36 328.736 223.36C330.428 223.36 331.562 224.872 331.562 227.14C331.562 229.372 330.428 230.884 328.736 230.884ZM338.338 232.252C339.688 232.252 340.66 231.532 341.578 230.47H341.614L341.758 232H343.108V222.226H341.47V229.174C340.552 230.326 339.832 230.812 338.842 230.812C337.546 230.812 336.988 230.038 336.988 228.22V222.226H335.35V228.418C335.35 230.92 336.286 232.252 338.338 232.252ZM346.068 236.122H347.706V232.828L347.67 231.118C348.552 231.838 349.47 232.252 350.352 232.252C352.602 232.252 354.6 230.308 354.6 226.978C354.6 223.954 353.25 221.992 350.712 221.992C349.578 221.992 348.498 222.622 347.616 223.36H347.562L347.4 222.226H346.068V236.122ZM350.1 230.866C349.452 230.866 348.588 230.596 347.706 229.858V224.71C348.66 223.828 349.488 223.36 350.316 223.36C352.17 223.36 352.908 224.818 352.908 226.996C352.908 229.408 351.702 230.866 350.1 230.866ZM357.452 232.252C358.118 232.252 358.658 231.73 358.658 230.992C358.658 230.236 358.118 229.732 357.452 229.732C356.804 229.732 356.282 230.236 356.282 230.992C356.282 231.73 356.804 232.252 357.452 232.252ZM361.273 232H362.911V224.908C363.883 223.936 364.585 223.414 365.575 223.414C366.871 223.414 367.429 224.188 367.429 226.024V232H369.085V225.808C369.085 223.324 368.149 221.992 366.097 221.992C364.747 221.992 363.739 222.73 362.821 223.648H362.767L362.605 222.226H361.273V232ZM374.456 232.252C376.76 232.252 378.002 230.938 378.002 229.336C378.002 227.482 376.454 226.906 375.032 226.366C373.916 225.97 372.926 225.61 372.926 224.674C372.926 223.918 373.484 223.27 374.726 223.27C375.59 223.27 376.292 223.648 376.958 224.134L377.75 223.09C376.994 222.478 375.914 221.992 374.708 221.992C372.584 221.992 371.342 223.198 371.342 224.746C371.342 226.42 372.836 227.068 374.186 227.59C375.266 227.986 376.436 228.436 376.436 229.426C376.436 230.29 375.788 230.974 374.492 230.974C373.322 230.974 372.458 230.488 371.612 229.804L370.802 230.902C371.72 231.658 373.07 232.252 374.456 232.252ZM383.254 236.5C386.26 236.5 388.186 234.952 388.186 233.134C388.186 231.514 387.052 230.812 384.784 230.812H382.876C381.562 230.812 381.148 230.362 381.148 229.732C381.148 229.21 381.436 228.868 381.778 228.58C382.228 228.796 382.768 228.904 383.236 228.904C385.234 228.904 386.818 227.608 386.818 225.52C386.818 224.674 386.494 223.954 386.026 223.504H388.024V222.226H384.622C384.28 222.1 383.794 221.992 383.236 221.992C381.256 221.992 379.564 223.324 379.564 225.484C379.564 226.654 380.212 227.59 380.86 228.112V228.184C380.338 228.544 379.762 229.174 379.762 229.984C379.762 230.758 380.14 231.28 380.644 231.604V231.676C379.744 232.252 379.204 233.062 379.204 233.89C379.204 235.564 380.86 236.5 383.254 236.5ZM383.236 227.806C382.102 227.806 381.148 226.888 381.148 225.484C381.148 224.026 382.084 223.18 383.236 223.18C384.388 223.18 385.324 224.044 385.324 225.484C385.324 226.888 384.37 227.806 383.236 227.806ZM383.47 235.384C381.706 235.384 380.644 234.718 380.644 233.656C380.644 233.098 380.932 232.504 381.634 232C382.084 232.126 382.534 232.162 382.912 232.162H384.604C385.882 232.162 386.584 232.468 386.584 233.386C386.584 234.394 385.36 235.384 383.47 235.384ZM390.588 232.252C391.254 232.252 391.794 231.73 391.794 230.992C391.794 230.236 391.254 229.732 390.588 229.732C389.94 229.732 389.418 230.236 389.418 230.992C389.418 231.73 389.94 232.252 390.588 232.252ZM394.41 232H396.048V222.226H394.41V232ZM395.238 220.21C395.868 220.21 396.336 219.796 396.336 219.112C396.336 218.482 395.868 218.068 395.238 218.068C394.59 218.068 394.14 218.482 394.14 219.112C394.14 219.796 394.59 220.21 395.238 220.21ZM402.319 232.252C403.507 232.252 404.533 231.622 405.307 230.848H405.343L405.487 232H406.837V217.69H405.199V221.434L405.271 223.126C404.425 222.406 403.669 221.992 402.535 221.992C400.303 221.992 398.287 223.954 398.287 227.14C398.287 230.398 399.871 232.252 402.319 232.252ZM402.679 230.866C400.969 230.866 399.997 229.462 399.997 227.122C399.997 224.89 401.239 223.36 402.805 223.36C403.615 223.36 404.371 223.648 405.199 224.404V229.534C404.389 230.416 403.597 230.866 402.679 230.866Z" fill="#FFD866"/>
</g>
</g>
<defs>
<filter id="filter0_bd_73_514" x="11" y="12" width="542" height="353" filterUnits="userSpaceOnUse" color-interpolation-filters="sRGB">
<feFlood flood-opacity="0" result="BackgroundImageFix"/>
<feGaussianBlur in="BackgroundImage" stdDeviation="15"/>
<feComposite in2="SourceAlpha" operator="in" result="effect1_backgroundBlur_73_514"/>
<feColorMatrix in="SourceAlpha" type="matrix" values="0 0 0 0 0 0 0 0 0 0 0 0 0 0 0 0 0 0 127 0" result="hardAlpha"/>
<feMorphology radius="1" operator="erode" in="SourceAlpha" result="effect2_dropShadow_73_514"/>
<feOffset dx="14" dy="21"/>
<feGaussianBlur stdDeviation="20"/>
<feComposite in2="hardAlpha" operator="out"/>
<feColorMatrix type="matrix" values="0 0 0 0 0.30783 0 0 0 0 0.389436 0 0 0 0 0.495833 0 0 0 0.1 0"/>
<feBlend mode="normal" in2="effect1_backgroundBlur_73_514" result="effect2_dropShadow_73_514"/>
<feBlend mode="normal" in="SourceGraphic" in2="effect2_dropShadow_73_514" result="shape"/>
</filter>
<clipPath id="clip0_73_514">
<rect width="541" height="371" fill="white"/>
</clipPath>
<clipPath id="clip1_73_514">
<rect width="24" height="188" fill="white" transform="translate(49 47)"/>
</clipPath>
</defs>
</svg>
