<svg width="541" height="371" viewBox="0 0 541 371" fill="none" xmlns="http://www.w3.org/2000/svg">
<g clip-path="url(#clip0_73_529)">
<g filter="url(#filter0_bd_73_529)">
<rect x="48" y="28" width="459" height="314" rx="16" fill="white"/>
<rect x="86.75" y="123.75" width="400.5" height="70.5" rx="3.25" fill="white"/>
<path d="M103.938 148.766H102.453V151.25C101.055 151.297 99.7188 151.305 98.5938 151.312L98.7812 152.531C101.281 152.531 104.68 152.508 107.844 151.922L107.734 150.828C106.516 151.008 105.219 151.117 103.938 151.188V148.766ZM98.9688 148.094L99.6719 149.219C101.352 148.742 102.586 147.672 103.195 146.273C103.828 147.602 105.078 148.617 106.75 149.094L107.438 147.938C105.344 147.375 104.016 145.961 103.938 144.312H107.078V143.109H103.938V141.438H102.453V143.109H99.3438V144.312H102.438C102.359 146.031 101.055 147.492 98.9688 148.094ZM108.609 155.359H110.094V141.328H108.609V155.359ZM123.531 142.156H113.953V143.359H122.062C122.062 144.539 122.055 145.867 121.688 147.688H112.344V148.906H125.156V147.688H123.18C123.539 145.836 123.539 144.453 123.531 143.266V142.156ZM114.016 155.031H123.953V153.812H115.484V150.359H114.016V155.031ZM141.766 141.328H140.281V146.359H137.391V147.578H140.281V155.359H141.766V141.328ZM129.922 151.453L130.828 152.609C132.445 151.781 133.719 150.039 134.344 148.008C134.969 149.914 136.211 151.547 137.828 152.328L138.719 151.141C136.57 150.188 135.078 147.633 135.078 145.266V143.953H138.188V142.734H130.484V143.953H133.578V145.266C133.57 147.781 132.062 150.43 129.922 151.453ZM148.797 143.906V143.531H151.812V142.328H144.234V143.531H147.312V143.922C147.305 145.867 145.984 147.672 143.797 148.391L144.562 149.578C146.242 148.992 147.469 147.781 148.078 146.25C148.695 147.578 149.859 148.633 151.453 149.141L152.156 147.984C150.031 147.312 148.789 145.688 148.797 143.906ZM145.688 152.672C145.688 154.336 147.477 155.305 150.391 155.297C153.273 155.305 155.031 154.336 155.031 152.672C155.031 151.031 153.273 150.07 150.391 150.078C147.477 150.07 145.688 151.031 145.688 152.672ZM147.172 152.672C147.164 151.758 148.367 151.242 150.391 151.25C152.398 151.242 153.586 151.758 153.578 152.672C153.586 153.609 152.398 154.133 150.391 154.125C148.367 154.133 147.164 153.609 147.172 152.672ZM153.422 149.734H154.906V146.016H156.938V144.797H154.906V141.328H153.422V149.734ZM169.375 141.344H167.906V149.844H169.375V141.344ZM157.828 148.156L158 149.312C160.516 149.32 163.898 149.281 166.938 148.766L166.844 147.703C165.664 147.867 164.414 147.977 163.172 148.039V146.562H165.938V145.375H160.531V143.297H165.844V142.078H159.047V146.562H161.672V148.109C160.297 148.148 158.977 148.156 157.828 148.156ZM160.047 155.156H169.375V150.484H160.047V155.156ZM161.516 153.953V151.672H167.938V153.953H161.516Z" fill="#626262"/>
<path d="M102.389 175.137C104.439 175.137 105.964 173.927 105.957 172.279C105.964 171.028 105.178 170.119 103.824 169.928V169.859C104.891 169.593 105.588 168.786 105.574 167.658C105.588 166.195 104.364 164.965 102.416 164.965C100.57 164.965 99.0801 166.059 99.0391 167.672H100.488C100.522 166.776 101.411 166.223 102.402 166.223C103.448 166.223 104.125 166.838 104.125 167.74C104.125 168.69 103.339 169.319 102.211 169.312H101.363V170.543H102.211C103.626 170.55 104.439 171.247 104.439 172.225C104.439 173.188 103.571 173.838 102.375 173.838C101.268 173.838 100.406 173.284 100.352 172.416H98.8203C98.8818 174.036 100.338 175.137 102.389 175.137ZM109.088 170.598C109.088 169.415 109.833 168.738 110.865 168.738C111.85 168.738 112.438 169.367 112.438 170.461V175H113.9V170.283C113.9 168.424 112.882 167.48 111.357 167.48C110.202 167.48 109.505 167.986 109.156 168.793H109.061V165.102H107.625V175H109.088V170.598ZM118.809 175.15C120.9 175.15 122.268 173.619 122.268 171.322C122.268 169.012 120.9 167.48 118.809 167.48C116.703 167.48 115.329 169.012 115.336 171.322C115.329 173.619 116.703 175.15 118.809 175.15ZM116.799 171.322C116.799 169.9 117.448 168.69 118.809 168.684C120.148 168.69 120.791 169.9 120.791 171.322C120.791 172.737 120.148 173.934 118.809 173.934C117.448 173.934 116.799 172.737 116.799 171.322ZM128.42 171.91C128.42 173.175 127.483 173.77 126.67 173.77C125.781 173.77 125.166 173.127 125.166 172.115V167.576H123.703V172.293C123.703 174.132 124.715 175.096 126.15 175.096C127.265 175.096 128.023 174.508 128.365 173.715H128.447V175H129.869V167.576H128.42V171.91ZM131.646 175H133.109V170.475C133.109 169.504 133.861 168.8 134.873 168.807C135.174 168.8 135.516 168.861 135.639 168.889V167.494C135.488 167.48 135.201 167.46 135.023 167.467C134.155 167.46 133.41 167.959 133.137 168.752H133.055V167.576H131.646V175ZM140.902 169.6H142.311C142.167 168.321 141.135 167.48 139.48 167.48C137.758 167.48 136.609 168.39 136.609 169.709C136.609 170.734 137.307 171.452 138.646 171.746L139.809 171.992C140.595 172.177 140.95 172.484 140.957 172.963C140.95 173.585 140.342 173.981 139.398 173.975C138.517 173.981 138.011 173.646 137.881 172.977H136.391C136.575 174.357 137.628 175.15 139.412 175.15C141.306 175.15 142.44 174.193 142.447 172.854C142.44 171.801 141.777 171.151 140.41 170.844L139.234 170.57C138.414 170.379 138.065 170.064 138.072 169.627C138.065 169.06 138.66 168.629 139.494 168.629C140.301 168.629 140.766 169.012 140.902 169.6ZM146.945 172.908C146.938 174.357 148.039 175.164 149.447 175.164C150.678 175.164 151.361 174.542 151.648 173.988H151.703V175H153.125V170.064C153.118 167.911 151.396 167.48 150.213 167.48C148.456 167.48 147.308 168.369 147.178 169.6H148.627C148.777 169.053 149.297 168.656 150.158 168.656C151.149 168.656 151.669 169.142 151.662 169.982L151.669 170.577C151.327 170.591 150.213 170.652 149.721 170.68C148.381 170.775 146.938 171.213 146.945 172.908ZM148.367 172.922C148.367 172.19 148.969 171.828 149.926 171.76C150.274 171.739 151.334 171.664 151.669 171.644L151.676 172.32C151.676 173.202 150.965 173.995 149.775 174.002C148.955 173.995 148.367 173.633 148.367 172.922ZM158.006 177.939C159.92 177.939 161.362 177.071 161.355 175.164V167.576H159.934V168.779H159.838C159.564 168.314 159.059 167.48 157.678 167.48C155.894 167.48 154.561 168.841 154.561 171.213C154.561 173.585 155.914 174.891 157.664 174.891C159.031 174.891 159.564 174.125 159.824 173.646H159.92V175.109C159.913 176.265 159.182 176.771 158.02 176.764C157.056 176.771 156.399 176.429 156.256 175.725H154.766C154.896 177.112 156.133 177.939 158.006 177.939ZM156.051 171.24C156.044 169.818 156.7 168.718 157.992 168.725C159.25 168.718 159.934 169.736 159.934 171.24C159.934 172.771 159.236 173.681 157.992 173.688C156.714 173.681 156.044 172.696 156.051 171.24ZM166.277 175.15C168.369 175.15 169.736 173.619 169.736 171.322C169.736 169.012 168.369 167.48 166.277 167.48C164.172 167.48 162.798 169.012 162.805 171.322C162.798 173.619 164.172 175.15 166.277 175.15ZM164.268 171.322C164.268 169.9 164.917 168.69 166.277 168.684C167.617 168.69 168.26 169.9 168.26 171.322C168.26 172.737 167.617 173.934 166.277 173.934C164.917 173.934 164.268 172.737 164.268 171.322Z" fill="#626262"/>
<rect x="390" y="143" width="86" height="32" rx="4" fill="#DFE8F3"/>
<path d="M414.012 164H419.986V162.701H415.516V154.102H414.012V164ZM421.066 161.908C421.06 163.357 422.16 164.164 423.568 164.164C424.799 164.164 425.482 163.542 425.77 162.988H425.824V164H427.246V159.064C427.239 156.911 425.517 156.48 424.334 156.48C422.577 156.48 421.429 157.369 421.299 158.6H422.748C422.898 158.053 423.418 157.656 424.279 157.656C425.271 157.656 425.79 158.142 425.783 158.982L425.79 159.577C425.448 159.591 424.334 159.652 423.842 159.68C422.502 159.775 421.06 160.213 421.066 161.908ZM422.488 161.922C422.488 161.19 423.09 160.828 424.047 160.76C424.396 160.739 425.455 160.664 425.79 160.644L425.797 161.32C425.797 162.202 425.086 162.995 423.896 163.002C423.076 162.995 422.488 162.633 422.488 161.922ZM432.482 156.576H430.965V154.799H429.516V156.576H428.422V157.738H429.516V162.113C429.502 163.467 430.534 164.096 431.676 164.096C432.079 164.096 432.394 164.068 432.592 164.041V162.77C432.387 162.79 432.065 162.811 431.854 162.811C431.382 162.804 430.972 162.653 430.965 161.812V157.738H432.482V156.576ZM437.021 164.15C438.655 164.15 439.797 163.344 440.125 162.141H438.648C438.402 162.592 437.862 162.947 437.035 162.947C435.818 162.947 434.984 162.147 434.943 160.732H440.221V160.213C440.221 157.526 438.614 156.48 436.926 156.48C434.854 156.48 433.487 158.053 433.494 160.336C433.487 162.64 434.834 164.15 437.021 164.15ZM434.95 159.639C435.012 158.593 435.771 157.677 436.939 157.684C438.054 157.677 438.785 158.511 438.785 159.639H434.95ZM445.84 158.6H447.248C447.104 157.321 446.072 156.48 444.418 156.48C442.695 156.48 441.547 157.39 441.547 158.709C441.547 159.734 442.244 160.452 443.584 160.746L444.746 160.992C445.532 161.177 445.888 161.484 445.895 161.963C445.888 162.585 445.279 162.981 444.336 162.975C443.454 162.981 442.948 162.646 442.818 161.977H441.328C441.513 163.357 442.565 164.15 444.35 164.15C446.243 164.15 447.378 163.193 447.385 161.854C447.378 160.801 446.715 160.151 445.348 159.844L444.172 159.57C443.352 159.379 443.003 159.064 443.01 158.627C443.003 158.06 443.598 157.629 444.432 157.629C445.238 157.629 445.703 158.012 445.84 158.6ZM452.279 156.576H450.762V154.799H449.312V156.576H448.219V157.738H449.312V162.113C449.299 163.467 450.331 164.096 451.473 164.096C451.876 164.096 452.19 164.068 452.389 164.041V162.77C452.184 162.79 451.862 162.811 451.65 162.811C451.179 162.804 450.769 162.653 450.762 161.812V157.738H452.279V156.576Z" fill="#206FD6"/>
<rect x="86.75" y="123.75" width="400.5" height="70.5" rx="3.25" stroke="#DFDFDF" stroke-width="1.5"/>
<rect x="86.75" y="253.75" width="400.5" height="70.5" rx="3.25" fill="white"/>
<path d="M99.1562 272.688V284H100.797V275.812H100.891L104.219 283.984H105.578L108.891 275.828H109V284H110.641V272.688H108.547L104.969 281.453H104.828L101.25 272.688H99.1562ZM119.109 275.672H120.781C120.727 273.844 119.125 272.531 116.828 272.531C114.539 272.531 112.805 273.828 112.797 275.781C112.805 277.359 113.93 278.281 115.75 278.781L117.094 279.141C118.289 279.461 119.227 279.859 119.234 280.844C119.227 281.953 118.18 282.68 116.734 282.688C115.414 282.68 114.32 282.094 114.219 280.859H112.5C112.609 282.922 114.203 284.188 116.734 284.188C119.406 284.188 120.93 282.789 120.938 280.875C120.93 278.828 119.117 278.039 117.672 277.688L116.578 277.391C115.68 277.18 114.516 276.758 114.516 275.688C114.523 274.727 115.398 274.016 116.781 274.016C118.078 274.016 119 274.617 119.109 275.672ZM123.656 284L124.688 281.016H129.094L130.125 284H131.953L127.875 272.688H125.891L121.828 284H123.656ZM125.18 279.578L126.844 274.75H126.922L128.594 279.578H125.18Z" fill="#626262"/>
<path d="M102.457 305.137C104.583 305.15 105.998 303.681 105.998 301.76C105.998 299.866 104.576 298.513 102.812 298.506C101.739 298.513 100.81 299.005 100.27 299.846H100.16C100.16 297.61 101.049 296.284 102.58 296.277C103.578 296.284 104.214 296.865 104.412 297.672H105.902C105.67 296.1 104.405 294.965 102.58 294.965C100.208 294.965 98.7178 296.934 98.7109 300.379C98.7109 304.036 100.625 305.123 102.457 305.137ZM100.338 301.801C100.352 300.7 101.274 299.729 102.484 299.736C103.674 299.729 104.535 300.652 104.535 301.787C104.535 302.942 103.64 303.872 102.443 303.879C101.227 303.872 100.345 302.901 100.338 301.801ZM109.074 300.598C109.074 299.415 109.819 298.738 110.852 298.738C111.836 298.738 112.424 299.367 112.424 300.461V305H113.887V300.283C113.887 298.424 112.868 297.48 111.344 297.48C110.188 297.48 109.491 297.986 109.143 298.793H109.047V295.102H107.611V305H109.074V300.598ZM118.795 305.15C120.887 305.15 122.254 303.619 122.254 301.322C122.254 299.012 120.887 297.48 118.795 297.48C116.689 297.48 115.315 299.012 115.322 301.322C115.315 303.619 116.689 305.15 118.795 305.15ZM116.785 301.322C116.785 299.9 117.435 298.69 118.795 298.684C120.135 298.69 120.777 299.9 120.777 301.322C120.777 302.737 120.135 303.934 118.795 303.934C117.435 303.934 116.785 302.737 116.785 301.322ZM128.406 301.91C128.406 303.175 127.47 303.77 126.656 303.77C125.768 303.77 125.152 303.127 125.152 302.115V297.576H123.689V302.293C123.689 304.132 124.701 305.096 126.137 305.096C127.251 305.096 128.01 304.508 128.352 303.715H128.434V305H129.855V297.576H128.406V301.91ZM131.633 305H133.096V300.475C133.096 299.504 133.848 298.8 134.859 298.807C135.16 298.8 135.502 298.861 135.625 298.889V297.494C135.475 297.48 135.188 297.46 135.01 297.467C134.142 297.46 133.396 297.959 133.123 298.752H133.041V297.576H131.633V305ZM140.889 299.6H142.297C142.153 298.321 141.121 297.48 139.467 297.48C137.744 297.48 136.596 298.39 136.596 299.709C136.596 300.734 137.293 301.452 138.633 301.746L139.795 301.992C140.581 302.177 140.937 302.484 140.943 302.963C140.937 303.585 140.328 303.981 139.385 303.975C138.503 303.981 137.997 303.646 137.867 302.977H136.377C136.562 304.357 137.614 305.15 139.398 305.15C141.292 305.15 142.427 304.193 142.434 302.854C142.427 301.801 141.764 301.151 140.396 300.844L139.221 300.57C138.4 300.379 138.052 300.064 138.059 299.627C138.052 299.06 138.646 298.629 139.48 298.629C140.287 298.629 140.752 299.012 140.889 299.6ZM146.932 302.908C146.925 304.357 148.025 305.164 149.434 305.164C150.664 305.164 151.348 304.542 151.635 303.988H151.689V305H153.111V300.064C153.104 297.911 151.382 297.48 150.199 297.48C148.442 297.48 147.294 298.369 147.164 299.6H148.613C148.764 299.053 149.283 298.656 150.145 298.656C151.136 298.656 151.655 299.142 151.648 299.982L151.655 300.577C151.313 300.591 150.199 300.652 149.707 300.68C148.367 300.775 146.925 301.213 146.932 302.908ZM148.354 302.922C148.354 302.19 148.955 301.828 149.912 301.76C150.261 301.739 151.32 301.664 151.655 301.644L151.662 302.32C151.662 303.202 150.951 303.995 149.762 304.002C148.941 303.995 148.354 303.633 148.354 302.922ZM157.992 307.939C159.906 307.939 161.349 307.071 161.342 305.164V297.576H159.92V298.779H159.824C159.551 298.314 159.045 297.48 157.664 297.48C155.88 297.48 154.547 298.841 154.547 301.213C154.547 303.585 155.9 304.891 157.65 304.891C159.018 304.891 159.551 304.125 159.811 303.646H159.906V305.109C159.899 306.265 159.168 306.771 158.006 306.764C157.042 306.771 156.386 306.429 156.242 305.725H154.752C154.882 307.112 156.119 307.939 157.992 307.939ZM156.037 301.24C156.03 299.818 156.687 298.718 157.979 298.725C159.236 298.718 159.92 299.736 159.92 301.24C159.92 302.771 159.223 303.681 157.979 303.688C156.7 303.681 156.03 302.696 156.037 301.24ZM166.264 305.15C168.355 305.15 169.723 303.619 169.723 301.322C169.723 299.012 168.355 297.48 166.264 297.48C164.158 297.48 162.784 299.012 162.791 301.322C162.784 303.619 164.158 305.15 166.264 305.15ZM164.254 301.322C164.254 299.9 164.903 298.69 166.264 298.684C167.604 298.69 168.246 299.9 168.246 301.322C168.246 302.737 167.604 303.934 166.264 303.934C164.903 303.934 164.254 302.737 164.254 301.322Z" fill="#626262"/>
<rect x="390" y="273" width="86" height="32" rx="4" fill="#F1E2F5"/>
<path d="M410.012 284.102V294H411.447V286.836H411.529L414.441 293.986H415.631L418.529 286.85H418.625V294H420.061V284.102H418.229L415.098 291.771H414.975L411.844 284.102H410.012ZM421.619 291.908C421.612 293.357 422.713 294.164 424.121 294.164C425.352 294.164 426.035 293.542 426.322 292.988H426.377V294H427.799V289.064C427.792 286.911 426.069 286.48 424.887 286.48C423.13 286.48 421.981 287.369 421.852 288.6H423.301C423.451 288.053 423.971 287.656 424.832 287.656C425.823 287.656 426.343 288.142 426.336 288.982L426.343 289.577C426.001 289.591 424.887 289.652 424.395 289.68C423.055 289.775 421.612 290.213 421.619 291.908ZM423.041 291.922C423.041 291.19 423.643 290.828 424.6 290.76C424.948 290.739 426.008 290.664 426.343 290.644L426.35 291.32C426.35 292.202 425.639 292.995 424.449 293.002C423.629 292.995 423.041 292.633 423.041 291.922ZM431.025 289.598C431.025 288.415 431.743 287.738 432.748 287.738C433.732 287.738 434.313 288.381 434.32 289.461V294H435.77V289.283C435.776 287.444 434.765 286.48 433.24 286.48C432.133 286.48 431.401 286.993 431.053 287.793H430.971V286.576H429.562V294H431.025V289.598ZM442.264 290.91C442.264 292.175 441.327 292.77 440.514 292.77C439.625 292.77 439.01 292.127 439.01 291.115V286.576H437.547V291.293C437.547 293.132 438.559 294.096 439.994 294.096C441.108 294.096 441.867 293.508 442.209 292.715H442.291V294H443.713V286.576H442.264V290.91ZM445.148 291.908C445.142 293.357 446.242 294.164 447.65 294.164C448.881 294.164 449.564 293.542 449.852 292.988H449.906V294H451.328V289.064C451.321 286.911 449.599 286.48 448.416 286.48C446.659 286.48 445.511 287.369 445.381 288.6H446.83C446.98 288.053 447.5 287.656 448.361 287.656C449.353 287.656 449.872 288.142 449.865 288.982L449.872 289.577C449.53 289.591 448.416 289.652 447.924 289.68C446.584 289.775 445.142 290.213 445.148 291.908ZM446.57 291.922C446.57 291.19 447.172 290.828 448.129 290.76C448.478 290.739 449.537 290.664 449.872 290.644L449.879 291.32C449.879 292.202 449.168 292.995 447.979 293.002C447.158 292.995 446.57 292.633 446.57 291.922ZM454.555 284.102H453.092V294H454.555V284.102Z" fill="#AD28DC"/>
<rect x="86.75" y="253.75" width="400.5" height="70.5" rx="3.25" stroke="#DFDFDF" stroke-width="1.5"/>
<path d="M71.6328 47.8281H68.6797V55.3516H64.7188V49.4688H61.7891V54.6484H57.4062V49.4688H54.4297V64.1406H64.7188V57.7656H68.6797V69.2031H71.6328V47.8281ZM57.4062 61.75V56.9922H61.7891V61.75H57.4062ZM92.3516 47.8516H89.375V53.3594H85.8828V55.7734H89.375V63.4141H92.3516V47.8516ZM74.2578 58.6094L75.7812 61.0469C78.3008 60.2148 80 58.4922 80.9492 56.3711C81.875 58.2812 83.5039 59.8281 85.8594 60.6016L87.3359 58.2344C83.9492 57.1328 82.4258 54.4961 82.4375 52.0234V51.6719H86.6797V49.2812H75.1016V51.6719H79.3906V52C79.3789 54.7305 77.7852 57.5078 74.2578 58.6094ZM78.1953 68.7812H92.8672V66.3906H81.1953V62.0547H78.1953V68.7812ZM112.977 47.8281H109.953V69.2031H112.977V47.8281ZM95.75 56.9219C95.7383 61.6094 98.1172 64.5391 101.398 64.5391C104.609 64.5391 107 61.6094 107 56.9219C107 52.2695 104.609 49.3281 101.398 49.3281C98.1172 49.3281 95.7383 52.2695 95.75 56.9219ZM98.6328 56.9219C98.6211 53.7578 99.7344 52.0234 101.398 52.0234C103.016 52.0234 104.105 53.7578 104.117 56.9219C104.105 60.0977 103.016 61.832 101.398 61.8203C99.7344 61.832 98.6211 60.0977 98.6328 56.9219ZM126.102 49.0703H116.656V51.4141H123.102V53.5H116.703V60.3906H118.297C122.422 60.3789 124.66 60.3203 127.156 59.875L126.875 57.4844C124.719 57.8945 122.82 58 119.656 58V55.7266H126.102V49.0703ZM119.141 64.3281H130.859V69.1562H133.836V61.9375H119.141V64.3281ZM127.32 57.6953H130.859V60.9766H133.836V47.8516H130.859V50.8047H127.32V53.1719H130.859V55.3281H127.32V57.6953Z" fill="#626262"/>
<path d="M60.4219 101.457H58.5664V104.562C56.8184 104.621 55.1484 104.631 53.7422 104.641L53.9766 106.164C57.1016 106.164 61.3496 106.135 65.3047 105.402L65.168 104.035C63.6445 104.26 62.0234 104.396 60.4219 104.484V101.457ZM54.2109 100.617L55.0898 102.023C57.1895 101.428 58.7324 100.09 59.4941 98.3418C60.2852 100.002 61.8477 101.271 63.9375 101.867L64.7969 100.422C62.1797 99.7188 60.5195 97.9512 60.4219 95.8906H64.3477V94.3867H60.4219V92.2969H58.5664V94.3867H54.6797V95.8906H58.5469C58.4492 98.0391 56.8184 99.8652 54.2109 100.617ZM66.2617 109.699H68.1172V92.1602H66.2617V109.699ZM84.9141 93.1953H72.9414V94.6992H83.0781C83.0781 96.1738 83.0684 97.834 82.6094 100.109H70.9297V101.633H86.9453V100.109H84.4746C84.9238 97.7949 84.9238 96.0664 84.9141 94.582V93.1953ZM73.0195 109.289H85.4414V107.766H74.8555V103.449H73.0195V109.289ZM108.02 92.1797H106.262V97.4727H104.152V92.4922H102.395V104.777H104.152V99.0156H106.262V105.324H108.02V92.1797ZM93.1953 102.102L94.0938 103.43C98.9961 101.369 100.881 98.0098 100.871 93.6641H94.0156V95.168H99.0645C99.0059 95.7832 98.8887 96.3691 98.7031 96.9258L93.2148 97.2578L93.4883 98.8203L98.0586 98.3223C97.1406 99.8457 95.5684 101.115 93.1953 102.102ZM96.3594 109.289H108.547V107.785H98.2148V103.742H96.3594V109.289ZM124.973 92.1602H123.137V98.5469H119.27V93.5078H117.453V97.9805H112.941V93.5078H111.066V105.363H119.27V100.07H123.137V109.699H124.973V92.1602ZM112.941 103.84V99.4453H117.453V103.84H112.941ZM136.555 94.6406V93.3125H134.602V94.6406C134.592 97.4922 131.574 100.168 128.254 100.793L129.074 102.336C131.877 101.711 134.445 99.8848 135.598 97.4336C136.73 99.8945 139.299 101.73 142.102 102.336L142.961 100.793C139.592 100.188 136.555 97.4922 136.555 94.6406ZM127.668 107.355H143.684V105.812H127.668V107.355Z" fill="#626262"/>
<path d="M68.2344 222.18H66.3789V226.906H63.0391V228.41H66.3789V234.992H68.2344V222.18ZM53.6641 231.34L54.6211 232.844C56.7012 232.102 58.2344 230.559 58.9961 228.625C59.7578 230.363 61.2129 231.77 63.1758 232.453L64.1328 230.969C61.4863 230.09 59.9043 227.893 59.9141 225.715V225.031H63.6641V223.508H54.2305V225.031H58.0195V225.715C58.0293 228.127 56.3496 230.432 53.6641 231.34ZM56.8672 239.289H68.7031V237.785H58.7227V233.84H56.8672V239.289ZM76.1641 227.531V226.828H79.2695V225.305H76.1641V222.785H74.4258V225.305H71.2617V226.828H74.4258V227.531C74.4062 230.354 73.1562 233.352 70.7344 234.758L71.8281 236.164C73.5176 235.148 74.6895 233.322 75.3145 231.203C75.9492 233.186 77.1211 234.855 78.8203 235.754L79.8555 234.387C77.4434 233.088 76.1641 230.285 76.1641 227.531ZM78.1172 230.52H80.6367V238.781H82.3945V222.531H80.6367V228.977H78.1172V230.52ZM84.1719 239.66H85.9492V222.16H84.1719V239.66ZM102.707 222.16H100.852V239.699H102.707V222.16ZM88.8203 229.602C88.8203 233.381 90.7051 235.764 93.3516 235.754C95.9492 235.764 97.8633 233.381 97.8633 229.602C97.8633 225.861 95.9492 223.479 93.3516 223.469C90.7051 223.479 88.8203 225.861 88.8203 229.602ZM90.6172 229.602C90.6074 226.857 91.7207 225.139 93.3516 225.129C94.9531 225.139 96.0664 226.857 96.0664 229.602C96.0664 232.385 94.9531 234.094 93.3516 234.094C91.7207 234.094 90.6074 232.385 90.6172 229.602ZM113.84 223.215H106.203V224.699H111.984V226.906H106.223V232.238H107.492C110.979 232.229 112.775 232.17 114.914 231.809L114.738 230.305C112.766 230.666 111.105 230.734 108.059 230.734V228.312H113.84V223.215ZM108.215 235.324H118.234V239.68H120.09V233.82H108.215V235.324ZM114.953 229.855H118.234V232.941H120.09V222.18H118.234V224.719H114.953V226.203H118.234V228.371H114.953V229.855Z" fill="#626262"/>
<path d="M456 46C456 43.7909 457.791 42 460 42H484C486.209 42 488 43.7909 488 46V70C488 72.2091 486.209 74 484 74H460C457.791 74 456 72.2091 456 70V46Z" fill="#868686"/>
<path d="M472 56.8218L476.125 52.6968L477.303 53.8751L473.178 58.0001L477.303 62.1251L476.125 63.3034L472 59.1784L467.875 63.3034L466.697 62.1251L470.822 58.0001L466.697 53.8751L467.875 52.6968L472 56.8218Z" fill="white"/>
<path d="M460 43.5H484V40.5H460V43.5ZM486.5 46V70H489.5V46H486.5ZM484 72.5H460V75.5H484V72.5ZM457.5 70V46H454.5V70H457.5ZM460 72.5C458.619 72.5 457.5 71.3807 457.5 70H454.5C454.5 73.0376 456.962 75.5 460 75.5V72.5ZM486.5 70C486.5 71.3807 485.381 72.5 484 72.5V75.5C487.038 75.5 489.5 73.0376 489.5 70H486.5ZM484 43.5C485.381 43.5 486.5 44.6193 486.5 46H489.5C489.5 42.9624 487.038 40.5 484 40.5V43.5ZM460 40.5C456.962 40.5 454.5 42.9624 454.5 46H457.5C457.5 44.6193 458.619 43.5 460 43.5V40.5Z" fill="#868686"/>
<line x1="62.75" y1="123" x2="62.75" y2="195" stroke="#D5D5D5" stroke-width="1.5"/>
<circle cx="63" cy="158" r="10" fill="#D9D9D9"/>
<line x1="62.75" y1="253" x2="62.75" y2="325" stroke="#D5D5D5" stroke-width="1.5"/>
<circle cx="63" cy="288" r="10" fill="#D9D9D9"/>
<circle cx="63" cy="158" r="6" fill="#206FD6"/>
</g>
</g>
<defs>
<filter id="filter0_bd_73_529" x="11" y="-7" width="546" height="394" filterUnits="userSpaceOnUse" color-interpolation-filters="sRGB">
<feFlood flood-opacity="0" result="BackgroundImageFix"/>
<feGaussianBlur in="BackgroundImage" stdDeviation="15"/>
<feComposite in2="SourceAlpha" operator="in" result="effect1_backgroundBlur_73_529"/>
<feColorMatrix in="SourceAlpha" type="matrix" values="0 0 0 0 0 0 0 0 0 0 0 0 0 0 0 0 0 0 127 0" result="hardAlpha"/>
<feMorphology radius="1" operator="erode" in="SourceAlpha" result="effect2_dropShadow_73_529"/>
<feOffset dx="17" dy="5"/>
<feGaussianBlur stdDeviation="20.5"/>
<feComposite in2="hardAlpha" operator="out"/>
<feColorMatrix type="matrix" values="0 0 0 0 0.30783 0 0 0 0 0.389436 0 0 0 0 0.495833 0 0 0 0.13 0"/>
<feBlend mode="normal" in2="effect1_backgroundBlur_73_529" result="effect2_dropShadow_73_529"/>
<feBlend mode="normal" in="SourceGraphic" in2="effect2_dropShadow_73_529" result="shape"/>
</filter>
<clipPath id="clip0_73_529">
<rect width="541" height="371" fill="white"/>
</clipPath>
</defs>
</svg>
